<svg width="201" height="53" viewBox="0 0 201 53" fill="none" xmlns="http://www.w3.org/2000/svg">
<rect x="1.034" y="1.034" width="50.6662" height="50.6662" rx="11.374" fill="#363636"/>
<rect x="1.034" y="1.034" width="50.6662" height="50.6662" rx="11.374" stroke="#4E4D4D" stroke-width="2.06801"/>
<path d="M22.0247 19.1828C22.1119 19.1795 22.1991 19.1788 22.2863 19.1808C23.6718 19.2007 24.8536 19.7801 25.8669 20.7697C26.6098 21.4952 26.0893 22.246 25.9192 23.0822C25.868 23.3341 25.8629 23.7428 25.8576 24.0205C25.2853 23.9275 24.9087 23.9728 24.3407 24.0377C24.2764 24.4375 24.2426 25.0196 24.2072 25.436C24.7695 25.4254 25.3319 25.4324 25.8938 25.457C25.9164 26.4931 25.8638 27.71 25.8432 28.7585C25.8299 29.2396 25.8461 29.6056 25.8744 30.0872C25.1014 29.6298 24.5958 29.0597 23.7041 28.6574C23.0651 28.369 21.5436 27.9463 21.0727 27.5541C20.9525 27.0924 21.8175 20.1932 22.0247 19.1828Z" fill="#FFCC01"/>
<path d="M30.7131 19.7004C30.9198 19.7023 30.843 19.6779 31.0087 19.7837C31.2189 20.2543 32.0575 27.0258 31.961 27.5146C31.9157 27.7441 31.8103 27.911 31.6152 28.0452C31.103 28.3976 30.1596 28.5894 29.5593 28.8479C28.8538 29.1519 28.3089 29.5509 27.6701 29.9603C27.5361 30.0462 27.4448 30.1119 27.2859 30.0784C27.1839 29.8727 27.2196 29.4764 27.2232 29.2314C27.223 28.6922 27.1638 26.3656 27.2503 25.9589C27.5197 25.7392 28.403 25.8058 28.7885 25.8121C28.7809 25.4029 28.8081 24.9002 28.8193 24.4841C28.133 24.4219 27.7983 24.3734 27.1291 24.5422C27.1671 24.0532 27.1082 23.4016 27.0773 22.8995C26.6611 22.3335 26.6592 21.7873 27.1651 21.2634C28.2114 20.1797 29.242 19.792 30.7131 19.7004Z" fill="#FFCC01"/>
<path d="M13.5059 33.1914C13.4397 33.731 13.4831 34.523 13.4766 35.1445C13.4626 36.4656 13.5204 37.8847 13.4717 39.2422C14.4371 39.2549 15.4023 39.2536 16.3711 39.251C17.4427 39.2481 18.5183 39.2465 19.5957 39.2725L19.9229 39.2812L19.8926 39.6064C19.8835 39.7025 19.8824 39.8037 19.8828 39.9141C19.8832 40.0197 19.8847 40.1414 19.8809 40.2568C19.8732 40.4879 19.8415 40.7621 19.6807 41.0049L19.6572 41.04L19.625 41.0674C19.3841 41.2749 19.089 41.2428 18.9658 41.2451C16.6138 41.292 14.1189 41.2564 11.7646 41.2627L11.4277 41.2637L11.459 40.9287C11.481 40.695 11.4822 40.247 11.4766 39.7686C11.471 39.3027 11.4596 38.8113 11.459 38.5244L11.457 35.9023C11.4596 35.0284 11.4648 34.1542 11.4736 33.2803L11.4766 33.0234L11.7305 32.9824C11.9628 32.945 12.2473 32.9183 12.4639 32.8926L12.4727 32.8916L12.4824 32.8906L13.1846 32.8496L13.5508 32.8281L13.5059 33.1914Z" fill="#FFCC01" stroke="#FFCC01" stroke-width="0.610852"/>
<path d="M12.0024 11.1729C13.3918 11.1271 14.9156 11.1715 16.2905 11.167C16.5913 11.166 17.2395 11.1582 17.8726 11.1689C18.1892 11.1743 18.5061 11.1843 18.7769 11.2021C18.9728 11.215 19.1602 11.2335 19.3091 11.2607L19.4448 11.291L19.5249 11.3145L19.5825 11.375C19.6849 11.4832 19.7412 11.6171 19.7739 11.7363C19.8073 11.858 19.8227 11.9883 19.8306 12.1094C19.8454 12.3389 19.8333 12.6119 19.8345 12.75L19.8374 13.0547L19.5317 13.0576C19.2111 13.0606 17.6272 13.0564 16.1636 13.0684C15.4212 13.0744 14.6959 13.0848 14.144 13.1025C13.8677 13.1114 13.638 13.1212 13.4731 13.1338C13.4649 13.1344 13.4565 13.1351 13.4487 13.1357C13.5075 15.1272 13.492 17.2805 13.4722 19.2666L13.4683 19.6553L13.0913 19.5596C12.5334 19.4173 12.3532 19.4037 11.7876 19.4043L11.4819 19.4053V19.0986L11.4878 14.0928C11.4892 13.3466 11.4741 12.4903 11.5269 11.7217C11.5351 11.6027 11.5633 11.4828 11.6519 11.3789C11.6902 11.3339 11.732 11.3027 11.7603 11.2822C11.7744 11.272 11.7891 11.2616 11.8003 11.2539C11.8124 11.2456 11.8228 11.2382 11.8335 11.2305L11.9097 11.1758L12.0024 11.1729Z" fill="#FFCC01" stroke="#FFCC01" stroke-width="0.610852"/>
<path d="M41.3311 33.2266C41.2935 33.9842 41.3255 34.9611 41.3252 35.7686V35.7695L41.3145 40.9688L41.3135 41.3027L40.9814 41.2725C40.6634 41.2439 40.2399 41.2363 39.8086 41.2363L38.5889 41.2451L34.4072 41.2529L34.4082 41.2539L33.5664 41.2559L33.29 41.2568L33.2617 40.9824C33.2116 40.4938 33.2227 40.0624 33.2275 39.5986L33.2305 39.3281L33.499 39.2988C34.2547 39.2155 35.2963 39.2441 36.0312 39.2471H36.0303C37.2351 39.2484 38.4399 39.2611 39.6445 39.2842C39.6179 38.6568 39.5974 37.4404 39.5967 36.2705C39.5962 35.5418 39.6033 34.8232 39.6201 34.2646C39.6285 33.9859 39.6391 33.7436 39.6533 33.5586C39.6604 33.4665 39.669 33.3844 39.6787 33.3174C39.6865 33.2638 39.6996 33.18 39.7314 33.1123L39.8066 32.9541L39.9814 32.9385C40.3317 32.9073 40.6939 32.9092 41.0225 32.9053L41.3467 32.9014L41.3311 33.2266Z" fill="#FFCC01" stroke="#FFCC01" stroke-width="0.610852"/>
<path d="M33.9507 11.1143C36.3216 11.1166 38.6631 11.1539 41.0308 11.1348L41.3589 11.1328L41.3384 11.46C41.2837 12.3227 41.2987 13.2951 41.3208 14.2852C41.3428 15.2698 41.3715 16.2735 41.3384 17.1768C41.3308 17.3841 41.3422 17.7622 41.3433 18.167C41.3438 18.3633 41.3414 18.5621 41.3325 18.7354C41.3241 18.9006 41.3091 19.0698 41.2739 19.1934L41.2358 19.3271L41.1089 19.3867C40.9987 19.4383 40.8933 19.4719 40.7612 19.458C40.7116 19.4528 40.6625 19.4409 40.6313 19.4336C40.6053 19.4275 40.5787 19.4214 40.5474 19.415L39.9614 19.4678L39.6323 19.4971L39.6284 19.167C39.6087 17.2342 39.5752 15.0571 39.6577 13.1025C38.9744 13.0662 38.0923 13.0853 37.4331 13.084H37.4312C36.15 13.073 34.8684 13.0795 33.5874 13.1025L33.2866 13.1074L33.2769 12.8066C33.2739 12.7111 33.2683 12.6103 33.2622 12.502C33.2562 12.3952 33.2502 12.2812 33.2476 12.168C33.2425 11.9452 33.2504 11.7004 33.3101 11.4756L33.3286 11.4043L33.3774 11.3496C33.4267 11.2945 33.5115 11.1902 33.6528 11.1504C33.7073 11.1351 33.763 11.1309 33.7886 11.1289C33.8223 11.1262 33.8589 11.124 33.9106 11.1172L33.9312 11.1143H33.9507Z" fill="#FFCC01" stroke="#FFCC01" stroke-width="0.610852"/>
<path d="M19.9855 21.2568C20.2991 21.2973 20.7203 21.4427 21.0316 21.5383C20.709 22.2256 20.4345 25.7033 20.2798 26.6635C20.1912 27.2133 20.0937 27.7122 19.9545 28.2879C22.0049 28.5987 24.0474 29.1338 25.5493 30.6855C25.6843 30.825 25.7466 30.9427 25.7346 31.1241C25.5487 31.1305 25.587 31.1185 25.4039 31.0276C23.3355 29.6887 20.8513 29.3088 18.4644 29.0021C18.7538 27.2149 19.1515 25.436 19.4636 23.6516C19.6066 22.834 19.7505 22.0564 19.9855 21.2568Z" fill="#FFCC01"/>
<path d="M32.8919 21.2571C32.9215 21.2568 32.9327 21.2559 32.9654 21.2605C33.0644 21.2744 33.1472 21.2809 33.206 21.3616C33.3272 21.5279 34.6043 28.797 34.565 28.9553C34.5075 29.1869 34.1835 29.1775 33.9878 29.2023C31.7894 29.4812 29.6907 29.9367 27.746 31.0079C27.5691 31.0935 27.5417 31.1086 27.3454 31.1256L27.2942 31.0461C27.4184 30.8025 27.8431 30.5186 28.0659 30.3458C29.5755 29.175 31.3611 28.7659 33.2283 28.4318L32.496 23.8286C32.3948 23.1826 32.2875 22.1068 32.0936 21.5311C32.3367 21.4376 32.6404 21.343 32.8919 21.2571Z" fill="#FFCC01"/>
<path d="M26.5325 33.0811C26.6447 33.0771 26.7807 33.0784 26.9133 33.1084L27.0432 33.1484L27.1155 33.1777L27.1643 33.2373C27.1998 33.2801 27.2186 33.3238 27.2278 33.3477C27.2384 33.3754 27.2465 33.4029 27.2522 33.4268C27.2635 33.4744 27.2717 33.5287 27.2786 33.584C27.2924 33.6959 27.3031 33.8395 27.3108 34C27.3262 34.3228 27.3324 34.7383 27.3342 35.1572C27.3379 35.9823 27.3233 36.8817 27.3235 37.085L27.3274 41.3965C27.3275 41.6386 27.3504 42.2741 27.3411 42.8486C27.3363 43.1418 27.323 43.438 27.2932 43.6865C27.2783 43.8106 27.2588 43.9301 27.2317 44.0342C27.2062 44.1318 27.1667 44.2447 27.0989 44.3359L27.0129 44.4521L26.8684 44.459L26.1145 44.4951L25.8235 44.5098L25.7961 44.2188C25.7345 43.5659 25.7358 42.5743 25.7473 41.5889C25.7589 40.5931 25.7809 39.5995 25.7639 38.915C25.7543 38.528 25.7445 37.2534 25.7502 36.0264C25.7531 35.4126 25.7598 34.8083 25.7727 34.3311C25.7791 34.0927 25.7872 33.8832 25.7971 33.7197C25.8063 33.5694 25.8186 33.4255 25.8411 33.3398L25.8967 33.1279L26.1155 33.1123C26.2088 33.1059 26.3899 33.0861 26.5325 33.0811Z" fill="#FFCC01" stroke="#FFCC01" stroke-width="0.610852"/>
<path d="M26.6702 8.24805C26.8155 8.26382 26.9825 8.30472 27.1096 8.4375C27.2324 8.56586 27.2698 8.73062 27.2874 8.86719C27.3052 9.00618 27.3085 9.18362 27.3137 9.38086C27.3248 9.80263 27.3214 10.237 27.3225 10.6504C27.3273 12.1012 27.323 13.5522 27.3079 15.0029C27.3071 15.1346 27.3121 15.3996 27.3176 15.7373C27.3231 16.073 27.3283 16.4745 27.3284 16.8682C27.3284 17.2607 27.3226 17.6504 27.3049 17.9619C27.2961 18.117 27.2848 18.2587 27.2678 18.374C27.2593 18.4316 27.2481 18.4883 27.2346 18.5391C27.2226 18.5841 27.202 18.6491 27.1633 18.708L27.0715 18.8486L26.9036 18.8457C26.7863 18.8441 26.5869 18.8556 26.429 18.832C26.2374 18.8034 26.047 18.7229 25.8831 18.5322L25.8186 18.458L25.8098 18.3594C25.7174 17.2941 25.8042 15.1541 25.8 14.041L25.7854 10.7285C25.7833 10.1233 25.7598 9.13444 25.845 8.50879L25.8801 8.25488L26.136 8.24512C26.3443 8.23707 26.5253 8.23237 26.6702 8.24805Z" fill="#FFCC01" stroke="#FFCC01" stroke-width="0.610852"/>
<path d="M17.1084 25.7119C17.1085 25.8393 17.115 26.0311 17.0996 26.21C17.0843 26.3878 17.0443 26.6067 16.9189 26.7891L16.8203 26.9326L16.6465 26.9209C14.9033 26.8046 13.0058 26.9086 11.2246 26.9502C10.0033 26.9787 8.7494 26.9676 7.53418 26.9688H7.22754L7.22852 26.6631L7.22949 26.1484C7.23373 26.0507 7.24286 25.9467 7.26074 25.8486C7.27797 25.7543 7.30718 25.6445 7.36426 25.5479L7.44629 25.4092L7.60645 25.3984C8.75342 25.3194 10.7494 25.3732 11.9336 25.377C13.3816 25.3816 15.3864 25.321 16.8213 25.4072L17.1074 25.4248L17.1084 25.7119Z" fill="#FFCC01" stroke="#FFCC01" stroke-width="0.610852"/>
<path d="M45.5061 25.709C45.491 25.8279 45.4845 26.0034 45.4631 26.2295C45.4535 26.3313 45.4401 26.4384 45.4221 26.5312C45.4131 26.5776 45.4024 26.6268 45.387 26.6729C45.3731 26.7142 45.3487 26.7766 45.304 26.833L45.217 26.9414L45.0784 26.9482L44.9309 26.9541L44.9182 26.9551C42.2332 26.9585 39.6217 26.8737 36.9514 26.8936C36.8626 26.8942 36.754 26.8964 36.6487 26.8711C36.5282 26.8421 36.4323 26.7838 36.3381 26.708L36.2678 26.6523L36.2395 26.5674C36.1793 26.3867 36.1466 26.1652 36.1965 25.9541C36.2502 25.7278 36.3995 25.5215 36.6672 25.4238L36.7092 25.4082L36.7542 25.4053C37.6741 25.3511 38.6711 25.3821 39.5715 25.377C41.4572 25.3661 43.3256 25.4048 45.1965 25.3652L45.551 25.3584L45.5061 25.709Z" fill="#FFCC01" stroke="#FFCC01" stroke-width="0.610852"/>
<path d="M69.0963 25.835V10.9316H78.964V13.5295H72.2473V17.0807H78.3091V19.6786H72.2473V25.835H69.0963ZM81.0834 25.835V10.9316H86.9633C88.0936 10.9316 89.0566 11.1475 89.8523 11.5792C90.6479 12.0062 91.2543 12.6005 91.6715 13.3621C92.0936 14.1189 92.3046 14.9922 92.3046 15.9819C92.3046 16.9715 92.0912 17.8448 91.6642 18.6016C91.2373 19.3584 90.6188 19.9478 89.8086 20.3699C89.0033 20.792 88.0282 21.003 86.8832 21.003H83.1356V18.4779H86.3738C86.9803 18.4779 87.4799 18.3736 87.8729 18.165C88.2707 17.9515 88.5667 17.658 88.7607 17.2844C88.9596 16.906 89.0591 16.4718 89.0591 15.9819C89.0591 15.487 88.9596 15.0552 88.7607 14.6865C88.5667 14.313 88.2707 14.0243 87.8729 13.8206C87.4751 13.612 86.9706 13.5077 86.3593 13.5077H84.2344V25.835H81.0834ZM101.663 25.835H98.2863L103.431 10.9316H107.492L112.629 25.835H109.253L105.52 14.3372H105.403L101.663 25.835ZM101.452 19.9769H109.427V22.4366H101.452V19.9769ZM114.423 25.835V10.9316H120.303C121.429 10.9316 122.389 11.1329 123.185 11.5356C123.985 11.9334 124.594 12.4986 125.011 13.2311C125.433 13.9588 125.644 14.8151 125.644 15.7999C125.644 16.7896 125.431 17.641 125.004 18.3542C124.577 19.0625 123.959 19.6058 123.148 19.9842C122.343 20.3626 121.368 20.5518 120.223 20.5518H116.286V18.0194H119.714C120.315 18.0194 120.815 17.937 121.213 17.772C121.61 17.6071 121.906 17.3596 122.1 17.0297C122.299 16.6999 122.399 16.2899 122.399 15.7999C122.399 15.3051 122.299 14.8879 122.1 14.5483C121.906 14.2087 121.608 13.9516 121.205 13.7769C120.808 13.5974 120.305 13.5077 119.699 13.5077H117.574V25.835H114.423ZM122.472 19.0528L126.176 25.835H122.697L119.073 19.0528H122.472ZM127.871 10.9316H131.757L135.861 20.9448H136.036L140.14 10.9316H144.026V25.835H140.97V16.1347H140.846L136.989 25.7622H134.908L131.051 16.0983H130.927V25.835H127.871V10.9316ZM145.749 10.9316H149.278L152.677 17.3499H152.822L156.221 10.9316H159.75L154.314 20.5664V25.835H151.185V20.5664L145.749 10.9316Z" fill="white"/>
<path d="M68.6692 42.8994V34.9966H69.8616V41.873H73.4426V42.8994H68.6692ZM74.7102 42.8994V36.9723H75.8639V42.8994H74.7102ZM75.2928 36.0578C75.0922 36.0578 74.9198 35.9909 74.7758 35.8572C74.6343 35.7208 74.5635 35.5587 74.5635 35.3709C74.5635 35.1806 74.6343 35.0185 74.7758 34.8847C74.9198 34.7484 75.0922 34.6802 75.2928 34.6802C75.4935 34.6802 75.6646 34.7484 75.8061 34.8847C75.9501 35.0185 76.0221 35.1806 76.0221 35.3709C76.0221 35.5587 75.9501 35.7208 75.8061 35.8572C75.6646 35.9909 75.4935 36.0578 75.2928 36.0578ZM82.4866 36.9723L80.3372 42.8994H79.1024L76.9492 36.9723H78.1879L79.6889 41.5334H79.7507L81.2479 36.9723H82.4866ZM85.9238 43.019C85.3398 43.019 84.8369 42.8943 84.415 42.6447C83.9957 42.3926 83.6715 42.0389 83.4426 41.5836C83.2162 41.1257 83.103 40.5893 83.103 39.9745C83.103 39.3673 83.2162 38.8323 83.4426 38.3692C83.6715 37.9062 83.9905 37.5447 84.3995 37.2849C84.8111 37.0251 85.2922 36.8952 85.8427 36.8952C86.1772 36.8952 86.5013 36.9505 86.8151 37.0611C87.129 37.1717 87.4107 37.3454 87.6602 37.582C87.9097 37.8187 88.1065 38.1261 88.2506 38.5043C88.3947 38.8799 88.4667 39.3365 88.4667 39.8741V40.2832H83.7551V39.4188H87.3361C87.3361 39.1152 87.2743 38.8464 87.1508 38.6123C87.0274 38.3756 86.8537 38.1891 86.6299 38.0528C86.4087 37.9165 86.1489 37.8483 85.8504 37.8483C85.5263 37.8483 85.2433 37.928 85.0015 38.0875C84.7623 38.2444 84.577 38.4502 84.4458 38.7049C84.3172 38.957 84.2529 39.231 84.2529 39.5268V40.2021C84.2529 40.5983 84.3224 40.9353 84.4613 41.2131C84.6028 41.491 84.7996 41.7032 85.0517 41.8498C85.3038 41.9939 85.5983 42.0659 85.9353 42.0659C86.154 42.0659 86.3534 42.035 86.5334 41.9733C86.7135 41.909 86.8692 41.8138 87.0004 41.6878C87.1316 41.5617 87.2319 41.4061 87.3013 41.2208L88.3934 41.4176C88.3059 41.7392 88.149 42.0209 87.9226 42.2627C87.6988 42.502 87.4171 42.6885 87.0775 42.8222C86.7405 42.9534 86.3559 43.019 85.9238 43.019ZM95.2736 42.8994H92.7152V34.9966H95.3546C96.1289 34.9966 96.7939 35.1549 97.3496 35.4713C97.9053 35.7851 98.331 36.2366 98.6268 36.8257C98.9253 37.4122 99.0745 38.1158 99.0745 38.9365C99.0745 39.7597 98.924 40.4671 98.623 41.0588C98.3246 41.6505 97.8924 42.1058 97.3264 42.4248C96.7605 42.7412 96.0762 42.8994 95.2736 42.8994ZM93.9076 41.8575H95.208C95.8099 41.8575 96.3103 41.7444 96.709 41.518C97.1078 41.289 97.4062 40.9585 97.6043 40.5263C97.8024 40.0915 97.9014 39.5616 97.9014 38.9365C97.9014 38.3165 97.8024 37.7904 97.6043 37.3582C97.4088 36.926 97.1168 36.598 96.7283 36.3742C96.3399 36.1504 95.8575 36.0385 95.2813 36.0385H93.9076V41.8575ZM102.189 43.0306C101.814 43.0306 101.474 42.9612 101.171 42.8222C100.867 42.6808 100.627 42.4762 100.449 42.2087C100.274 41.9412 100.187 41.6132 100.187 41.2247C100.187 40.8903 100.251 40.615 100.38 40.3989C100.508 40.1828 100.682 40.0118 100.901 39.8857C101.119 39.7597 101.364 39.6645 101.634 39.6002C101.904 39.5358 102.179 39.487 102.46 39.4535C102.815 39.4124 103.103 39.3789 103.324 39.3532C103.545 39.3249 103.706 39.2799 103.806 39.2181C103.907 39.1564 103.957 39.0561 103.957 38.9172V38.8901C103.957 38.5531 103.862 38.292 103.671 38.1068C103.483 37.9216 103.203 37.829 102.83 37.829C102.442 37.829 102.135 37.9152 101.912 38.0875C101.69 38.2573 101.537 38.4464 101.452 38.6548L100.368 38.4078C100.497 38.0476 100.685 37.757 100.931 37.5357C101.181 37.3119 101.468 37.1498 101.792 37.0495C102.116 36.9466 102.457 36.8952 102.815 36.8952C103.051 36.8952 103.302 36.9235 103.567 36.9801C103.835 37.0341 104.084 37.1344 104.316 37.281C104.55 37.4277 104.741 37.6373 104.891 37.91C105.04 38.1801 105.114 38.5313 105.114 38.9635V42.8994H103.988V42.0891H103.941C103.867 42.2383 103.755 42.3849 103.606 42.529C103.456 42.673 103.265 42.7927 103.031 42.8878C102.797 42.983 102.516 43.0306 102.189 43.0306ZM102.44 42.1045C102.759 42.1045 103.032 42.0415 103.258 41.9154C103.487 41.7894 103.661 41.6247 103.779 41.4215C103.9 41.2157 103.961 40.9958 103.961 40.7617V39.9976C103.919 40.0388 103.84 40.0774 103.721 40.1134C103.606 40.1468 103.473 40.1764 103.324 40.2021C103.175 40.2253 103.029 40.2471 102.888 40.2677C102.746 40.2857 102.628 40.3012 102.533 40.314C102.309 40.3423 102.105 40.3899 101.919 40.4568C101.737 40.5237 101.59 40.6202 101.479 40.7462C101.371 40.8697 101.317 41.0343 101.317 41.2401C101.317 41.5257 101.423 41.7418 101.634 41.8884C101.845 42.0325 102.114 42.1045 102.44 42.1045ZM111.093 38.4194L110.047 38.6046C110.003 38.4708 109.934 38.3435 109.839 38.2226C109.746 38.1017 109.62 38.0026 109.46 37.9255C109.301 37.8483 109.101 37.8097 108.862 37.8097C108.536 37.8097 108.263 37.883 108.044 38.0296C107.826 38.1737 107.716 38.3602 107.716 38.5892C107.716 38.7872 107.79 38.9467 107.936 39.0677C108.083 39.1886 108.319 39.2876 108.646 39.3648L109.588 39.5809C110.133 39.7069 110.54 39.9011 110.807 40.1635C111.075 40.4259 111.208 40.7668 111.208 41.1861C111.208 41.5411 111.105 41.8575 110.9 42.1354C110.696 42.4106 110.412 42.6267 110.047 42.7837C109.684 42.9406 109.264 43.019 108.785 43.019C108.121 43.019 107.58 42.8775 107.161 42.5946C106.741 42.309 106.484 41.9039 106.389 41.3791L107.504 41.2093C107.573 41.5 107.716 41.7199 107.932 41.8691C108.148 42.0158 108.43 42.0891 108.777 42.0891C109.156 42.0891 109.458 42.0106 109.684 41.8537C109.911 41.6942 110.024 41.5 110.024 41.271C110.024 41.0858 109.954 40.9302 109.815 40.8041C109.679 40.678 109.469 40.5829 109.186 40.5186L108.183 40.2986C107.63 40.1725 107.221 39.9719 106.956 39.6966C106.694 39.4214 106.562 39.0728 106.562 38.6509C106.562 38.301 106.66 37.9949 106.856 37.7325C107.051 37.4701 107.321 37.2656 107.666 37.119C108.011 36.9698 108.406 36.8952 108.851 36.8952C109.491 36.8952 109.995 37.0341 110.363 37.3119C110.731 37.5872 110.974 37.9563 111.093 38.4194ZM113.631 39.3802V42.8994H112.477V34.9966H113.615V37.937H113.689C113.828 37.618 114.04 37.3646 114.325 37.1769C114.611 36.9891 114.984 36.8952 115.444 36.8952C115.851 36.8952 116.206 36.9788 116.509 37.146C116.815 37.3132 117.052 37.5627 117.219 37.8946C117.389 38.2239 117.474 38.6355 117.474 39.1294V42.8994H116.32V39.2683C116.32 38.8336 116.208 38.4966 115.985 38.2573C115.761 38.0155 115.449 37.8946 115.051 37.8946C114.778 37.8946 114.534 37.9525 114.318 38.0682C114.104 38.184 113.936 38.3538 113.812 38.5776C113.691 38.7988 113.631 39.0664 113.631 39.3802ZM119.106 42.8994V34.9966H120.26V37.9332H120.33C120.396 37.8097 120.493 37.6669 120.619 37.5048C120.745 37.3428 120.92 37.2013 121.144 37.0804C121.368 36.9569 121.663 36.8952 122.031 36.8952C122.51 36.8952 122.937 37.0161 123.312 37.2579C123.688 37.4997 123.983 37.8483 124.196 38.3036C124.412 38.7589 124.52 39.3069 124.52 39.9475C124.52 40.588 124.413 41.1372 124.2 41.5951C123.986 42.0505 123.693 42.4016 123.32 42.6486C122.947 42.893 122.521 43.0152 122.043 43.0152C121.683 43.0152 121.388 42.9547 121.159 42.8338C120.933 42.7129 120.755 42.5714 120.627 42.4093C120.498 42.2473 120.399 42.1032 120.33 41.9772H120.233V42.8994H119.106ZM120.237 39.9359C120.237 40.3526 120.297 40.7179 120.418 41.0318C120.539 41.3456 120.714 41.5913 120.943 41.7688C121.172 41.9437 121.452 42.0312 121.784 42.0312C122.129 42.0312 122.417 41.9399 122.649 41.7572C122.88 41.572 123.055 41.3212 123.173 41.0048C123.294 40.6883 123.355 40.332 123.355 39.9359C123.355 39.5449 123.296 39.1937 123.177 38.8824C123.062 38.5712 122.887 38.3255 122.653 38.1454C122.421 37.9653 122.132 37.8753 121.784 37.8753C121.45 37.8753 121.167 37.9615 120.935 38.1338C120.706 38.3062 120.533 38.5467 120.414 38.8554C120.296 39.1641 120.237 39.5243 120.237 39.9359ZM128.312 43.019C127.757 43.019 127.272 42.8917 126.858 42.637C126.443 42.3823 126.122 42.026 125.893 41.5681C125.664 41.1102 125.55 40.5751 125.55 39.9629C125.55 39.3481 125.664 38.8104 125.893 38.3499C126.122 37.8894 126.443 37.5319 126.858 37.2772C127.272 37.0225 127.757 36.8952 128.312 36.8952C128.868 36.8952 129.353 37.0225 129.767 37.2772C130.181 37.5319 130.503 37.8894 130.732 38.3499C130.961 38.8104 131.075 39.3481 131.075 39.9629C131.075 40.5751 130.961 41.1102 130.732 41.5681C130.503 42.026 130.181 42.3823 129.767 42.637C129.353 42.8917 128.868 43.019 128.312 43.019ZM128.316 42.0505C128.676 42.0505 128.975 41.9553 129.211 41.7649C129.448 41.5746 129.623 41.3212 129.736 41.0048C129.852 40.6883 129.91 40.3398 129.91 39.959C129.91 39.5809 129.852 39.2336 129.736 38.9172C129.623 38.5982 129.448 38.3422 129.211 38.1493C128.975 37.9563 128.676 37.8599 128.316 37.8599C127.954 37.8599 127.653 37.9563 127.413 38.1493C127.177 38.3422 127 38.5982 126.885 38.9172C126.771 39.2336 126.715 39.5809 126.715 39.959C126.715 40.3398 126.771 40.6883 126.885 41.0048C127 41.3212 127.177 41.5746 127.413 41.7649C127.653 41.9553 127.954 42.0505 128.316 42.0505ZM134.088 43.0306C133.712 43.0306 133.373 42.9612 133.069 42.8222C132.766 42.6808 132.525 42.4762 132.348 42.2087C132.173 41.9412 132.085 41.6132 132.085 41.2247C132.085 40.8903 132.15 40.615 132.278 40.3989C132.407 40.1828 132.581 40.0118 132.799 39.8857C133.018 39.7597 133.262 39.6645 133.532 39.6002C133.802 39.5358 134.078 39.487 134.358 39.4535C134.713 39.4124 135.001 39.3789 135.222 39.3532C135.444 39.3249 135.605 39.2799 135.705 39.2181C135.805 39.1564 135.855 39.0561 135.855 38.9172V38.8901C135.855 38.5531 135.76 38.292 135.57 38.1068C135.382 37.9216 135.102 37.829 134.729 37.829C134.34 37.829 134.034 37.9152 133.81 38.0875C133.589 38.2573 133.436 38.4464 133.351 38.6548L132.267 38.4078C132.395 38.0476 132.583 37.757 132.83 37.5357C133.08 37.3119 133.366 37.1498 133.691 37.0495C134.015 36.9466 134.356 36.8952 134.713 36.8952C134.95 36.8952 135.201 36.9235 135.466 36.9801C135.733 37.0341 135.983 37.1344 136.214 37.281C136.448 37.4277 136.64 37.6373 136.789 37.91C136.938 38.1801 137.013 38.5313 137.013 38.9635V42.8994H135.886V42.0891H135.84C135.765 42.2383 135.653 42.3849 135.504 42.529C135.355 42.673 135.163 42.7927 134.929 42.8878C134.695 42.983 134.415 43.0306 134.088 43.0306ZM134.339 42.1045C134.658 42.1045 134.931 42.0415 135.157 41.9154C135.386 41.7894 135.559 41.6247 135.678 41.4215C135.799 41.2157 135.859 40.9958 135.859 40.7617V39.9976C135.818 40.0388 135.738 40.0774 135.62 40.1134C135.504 40.1468 135.372 40.1764 135.222 40.2021C135.073 40.2253 134.928 40.2471 134.786 40.2677C134.645 40.2857 134.527 40.3012 134.431 40.314C134.208 40.3423 134.003 40.3899 133.818 40.4568C133.635 40.5237 133.489 40.6202 133.378 40.7462C133.27 40.8697 133.216 41.0343 133.216 41.2401C133.216 41.5257 133.321 41.7418 133.532 41.8884C133.743 42.0325 134.012 42.1045 134.339 42.1045ZM138.55 42.8994V36.9723H139.665V37.9139H139.727C139.835 37.5949 140.025 37.3441 140.298 37.1614C140.573 36.9762 140.884 36.8836 141.232 36.8836C141.304 36.8836 141.388 36.8862 141.486 36.8913C141.587 36.8964 141.665 36.9029 141.722 36.9106V38.0142C141.675 38.0013 141.593 37.9872 141.475 37.9718C141.356 37.9538 141.238 37.9447 141.12 37.9447C140.847 37.9447 140.604 38.0026 140.39 38.1184C140.179 38.2316 140.012 38.3898 139.889 38.593C139.765 38.7937 139.703 39.0226 139.703 39.2799V42.8994H138.55ZM144.727 43.0152C144.248 43.0152 143.821 42.893 143.446 42.6486C143.073 42.4016 142.779 42.0505 142.566 41.5951C142.355 41.1372 142.249 40.588 142.249 39.9475C142.249 39.3069 142.356 38.7589 142.57 38.3036C142.786 37.8483 143.082 37.4997 143.457 37.2579C143.833 37.0161 144.258 36.8952 144.734 36.8952C145.102 36.8952 145.398 36.9569 145.622 37.0804C145.848 37.2013 146.023 37.3428 146.147 37.5048C146.273 37.6669 146.37 37.8097 146.44 37.9332H146.509V34.9966H147.663V42.8994H146.536V41.9772H146.44C146.37 42.1032 146.27 42.2473 146.139 42.4093C146.01 42.5714 145.833 42.7129 145.606 42.8338C145.38 42.9547 145.087 43.0152 144.727 43.0152ZM144.981 42.0312C145.313 42.0312 145.594 41.9437 145.823 41.7688C146.054 41.5913 146.229 41.3456 146.347 41.0318C146.468 40.7179 146.529 40.3526 146.529 39.9359C146.529 39.5243 146.47 39.1641 146.351 38.8554C146.233 38.5467 146.059 38.3062 145.83 38.1338C145.601 37.9615 145.318 37.8753 144.981 37.8753C144.634 37.8753 144.345 37.9653 144.113 38.1454C143.882 38.3255 143.707 38.5712 143.588 38.8824C143.473 39.1937 143.415 39.5449 143.415 39.9359C143.415 40.332 143.474 40.6883 143.592 41.0048C143.711 41.3212 143.885 41.572 144.117 41.7572C144.351 41.9399 144.639 42.0312 144.981 42.0312Z" fill="#D5D5D5"/>
</svg>
