<svg width="325" height="155" viewBox="0 0 325 155" fill="none" xmlns="http://www.w3.org/2000/svg">
<g style="mix-blend-mode:plus-lighter" opacity="0.08">
<path fill-rule="evenodd" clip-rule="evenodd" d="M205.118 0.0947673C220.058 0.356292 235.222 -0.251819 250.136 0.202189C249.897 1.97999 249.347 4.53001 249.011 6.33695C246.688 6.49675 243.217 6.4282 240.832 6.42875L225.466 6.41215C223.972 6.40936 215.892 5.92272 215.161 7.31547C214.649 8.28802 213.68 13.1458 213.886 14.3467C214.917 15.5281 219.143 15.0923 220.749 15.0791L234.799 15.042C237.234 15.0377 239.868 14.8334 242.277 15.1104C243.12 15.2071 244.028 15.4712 244.735 15.9463C245.282 16.3141 245.674 16.7887 245.795 17.4512C246.186 19.5761 243.698 31.4561 242.406 33.2598C241.155 35.002 239.343 35.5096 237.345 35.8614C222.725 36.2936 207.852 35.6592 193.211 35.92C190.321 35.9716 187.115 35.7473 184.279 36.0909C184.659 33.6081 184.839 32.4069 185.714 30.0918C188.106 29.8522 191.714 29.9596 194.235 29.959L209.339 29.9766C211.609 29.9801 216.652 30.1954 218.597 29.5274C219.529 28.7357 220.768 22.554 220.091 21.6661C218.625 20.5325 194.474 21.3047 190.414 20.9385C188.188 19.5923 188.092 17.4595 188.79 15.127C190.906 8.05559 188.678 0.961491 197.99 0.124064C200.269 0.0303296 202.825 0.0544893 205.118 0.0947673ZM132.987 0.204142C136.598 -0.0217315 140.211 0.0831456 143.829 0.0850016L162.67 0.10258C167.4 0.106663 172.108 0.0991819 176.862 0.097697C179.306 0.0969545 185.597 -0.387301 185.13 3.64067C184.636 7.90079 183.464 12.1809 182.709 16.4141C181.279 22.9118 180.149 29.4577 178.721 35.92L163.178 35.9229C160.765 35.9246 156.578 35.8176 154.265 36.086C154.464 34.7484 156.265 26.082 156.12 25.7784C154.702 25.9591 149.24 25.7916 147.259 25.8282C146.911 26.9965 145.356 35.0018 145.274 36.0518C141.637 35.7296 135.826 35.9423 132.02 35.9102C129.231 35.8868 122.95 35.7589 120.442 36.044C122.63 27.3827 123.88 18.0751 126.055 9.34086C127.184 4.80991 126.822 0.589842 132.987 0.204142ZM257.767 0.1309C265.008 -0.0873788 274.072 0.00586434 281.337 0.16215C280.951 1.36736 280.558 3.66407 280.282 5.0225L278.466 13.9092C278.121 15.5799 277.763 17.671 277.088 19.1993C279.43 19.4381 282.925 19.3496 285.37 19.3526C285.962 16.4623 288.601 3.68694 289.714 0.761759C290.071 -0.17757 297.76 0.105612 299.825 0.104533C304.964 0.0657405 310.104 0.100212 315.244 0.208049C314.446 2.02159 313.403 7.8488 312.929 10.1094L309.199 27.7403C308.816 29.64 308.139 34.3687 307.196 35.6465C305.874 36.0944 302.467 35.9181 300.958 35.9307C294.665 35.983 288.334 35.8165 282.044 36.0684C282.511 33.4057 283.232 28.3779 284.08 25.9239C281.394 25.8585 278.704 25.8085 276.016 25.7754C275.626 28.3584 274.532 33.5126 273.765 35.9512C266.604 35.7873 256.143 35.7708 248.974 36.0625C249.115 33.9031 255.639 1.63293 256.316 0.628947C256.806 0.223515 257.138 0.224439 257.767 0.1309ZM11.2457 0.106486C16.6462 0.0795681 62.7813 -0.0873339 63.9664 0.573283C64.4347 1.81262 63.3549 5.08699 62.9781 6.42192C60.4261 6.30592 57.1945 6.40029 54.5973 6.40141C48.2098 6.43352 41.8215 6.41689 35.4342 6.35063C34.0678 10.9596 33.7099 14.9593 32.6813 19.3194C39.456 19.4235 46.4189 19.3504 53.2086 19.3604C54.5811 19.3489 59.1036 19.1218 60.1285 19.7413C60.3485 20.41 59.5572 24.2815 59.2643 25.0772C59.1416 25.4104 58.9208 25.6207 58.5504 25.6973C57.1806 25.9804 54.6379 25.7553 53.4088 25.8282C50.2419 26.0162 33.449 25.3976 31.6793 26.0059C30.9321 26.7695 29.3262 34.6417 29.1764 36.0606C25.4613 35.7403 19.786 35.9309 15.9547 35.9092C12.6905 35.8907 6.80596 35.7364 3.70471 36.0508L3.71448 35.961C4.03968 33.1851 10.6237 0.964388 11.2457 0.106486ZM70.3854 0.143595C73.3344 0.0602552 93.5062 -0.303236 94.649 0.590861C94.8974 2.84467 92.7966 12.0703 92.2535 14.6485L89.0211 30.0772C98.0653 30.2556 107.553 29.6869 116.672 30.0157C116.517 31.2105 116.182 35.44 115.257 35.8497C109.339 36.0167 103.235 35.8636 97.3102 35.8868C85.8252 35.9319 74.2967 35.8217 62.8151 35.9698C62.8722 35.3593 62.9028 34.7616 63.0573 34.0157C65.3742 22.8191 67.7376 11.6301 69.9821 0.419963C70.1411 0.310945 70.2759 0.218537 70.3854 0.143595ZM159.956 6.8311C157.416 6.24928 156.297 6.35153 153.656 6.44731C153.088 6.51765 151.885 6.62147 151.678 7.1436C150.387 10.4088 149.577 15.8876 148.753 19.3135L155.101 19.3545L157.737 19.3672C157.959 15.7511 159.722 10.6755 159.956 6.8311Z" fill="white"/>
<path fill-rule="evenodd" clip-rule="evenodd" d="M112.434 120.363C113.21 120.31 114.281 120.134 114.97 120.41C115.438 120.974 115.251 130.664 115.252 132.087L115.264 145.866C115.265 147.574 115.559 153.56 114.728 154.68L112.317 154.796C111.935 150.745 112.328 142.333 112.219 137.91C112.158 135.465 112.092 121.664 112.434 120.363ZM211.059 46.7209C212.935 46.5464 215.339 46.6698 217.255 46.6642C220.735 46.654 224.273 46.6348 227.747 46.7697L240.608 91.6135L244.489 105.161C245.317 108.044 246.179 111.353 247.25 114.115C247.71 109.45 247.483 102.571 247.504 97.7043L247.46 65.635C247.436 59.7661 247.228 52.5421 247.569 46.759C249.116 46.5758 252.694 46.6465 254.379 46.6652C257.081 46.6953 260.588 46.5604 263.229 46.7482L263.363 108.112C263.378 121.891 263.613 136.153 263.348 149.878L263.263 150.495L262.896 150.749C262.266 150.837 261.373 150.885 260.74 150.795C257.654 150.357 248.596 151.606 246.24 150.379C245.496 148.846 244.562 145.456 244.044 143.734C242.949 140.033 241.826 136.34 240.676 132.656L232.507 106.278C230.46 99.7215 228.191 92.9026 226.378 86.2892L226.181 86.2219C225.574 87.8476 225.839 100.878 225.832 103.61L225.731 134.186C225.724 139.723 225.85 145.286 225.728 150.817C222.947 150.791 213.26 151.166 211.207 150.547C210.953 150.471 210.751 150.407 210.642 150.14C209.693 147.835 210.237 110.63 210.233 105.985C210.213 87.0797 209.939 68.1441 210.183 49.2424C210.19 48.6159 210.124 47.6208 210.417 47.0666C210.554 46.8066 210.79 46.8065 211.059 46.7209ZM0.13574 46.6408C8.0371 46.6488 15.9853 46.5925 23.8926 46.674C31.5176 46.7528 38.1599 48.2508 43.6025 53.8889C50.8905 61.4386 50.3271 71.3471 50.3301 81.1242C50.3325 89.0274 48.9362 96.4118 43.0732 102.139C36.2051 108.848 26.0103 108.918 16.8848 108.715C16.9768 112.046 16.9001 115.707 16.8984 119.064C16.9447 128.516 16.906 138.081 17.0244 147.541C17.0335 148.268 16.7245 149.849 16.2812 150.435C14.5421 151.155 2.99414 150.78 0.119139 150.873C0.149916 147.829 0.00260194 144.855 0.0146464 141.848L0.0351542 77.4885L0.0371073 57.8195C0.0361048 54.4471 -0.0927666 49.9091 0.13574 46.6408ZM274.26 46.6926C278.907 46.4481 285.755 46.6798 290.592 46.6818L324.071 46.6359C323.973 48.8139 324.379 60.6375 323.635 61.5383C321.813 62.1616 309.276 61.9472 307.071 61.6213C307.298 63.8467 307.199 68.1132 307.203 70.4719L307.216 86.2375L307.321 135.26C307.336 140.302 307.474 145.895 307.142 150.881C303.99 150.625 292.725 151.229 290.824 150.386C289.993 149.144 290.286 135.278 290.288 132.728L290.297 105.779L290.291 78.5353C290.287 73.0869 290.19 67.2909 290.362 61.8654C287.996 61.8734 274.358 62.1799 273.306 61.7062C272.769 60.0587 272.861 49.3315 273.109 47.4455C273.521 46.8422 273.46 47.0061 274.26 46.6926ZM181.716 46.7199C186.202 46.4061 192.325 46.7271 197.082 46.6223L197.08 111.977L197.073 135.121C197.071 139.874 197.138 144.669 196.943 149.417C196.916 150.077 196.91 150.257 196.525 150.769C193.71 150.703 190.872 150.75 188.06 150.714C186.651 150.696 182.553 151.049 181.632 150.189C181.229 148.426 181.435 142.994 181.45 140.857L181.448 126.812L181.368 63.5226C181.372 61.6597 181.196 47.5585 181.716 46.7199ZM160.024 119.705C159.903 122.158 160.006 125.353 160.005 127.88L159.972 144.499C157.879 144.311 154.412 144.403 152.233 144.406L138.868 144.435L136.181 144.444C136.027 142.948 136.059 141.633 136.074 140.132C138.417 139.874 141.658 139.963 144.056 139.973C148.251 139.977 152.448 140.023 156.643 140.111C156.419 137.771 156.267 120.878 156.771 119.806C157.843 119.71 158.947 119.718 160.024 119.705ZM71.0957 119.521C70.8758 121.315 71.013 123.997 70.9932 125.871C70.9442 130.516 71.1724 135.318 70.9424 139.948C77.8017 140.066 84.6471 139.888 91.5059 140.053C91.3715 141.48 91.7066 142.986 90.9863 144.073C90.5494 144.45 90.0711 144.392 89.4951 144.404C81.9871 144.553 74.0445 144.441 66.4951 144.461C66.6477 142.843 66.5012 138.508 66.4971 136.68C66.4731 131.098 66.4897 125.516 66.5459 119.934C67.2624 119.818 68.1171 119.739 68.8486 119.653L71.0957 119.521ZM94.377 81.2092C95.3326 81.3345 96.6162 81.7846 97.5645 82.0803C96.5817 84.2072 95.7447 94.9662 95.2734 97.9377C95.0036 99.6388 94.7063 101.183 94.2822 102.964C100.53 103.926 106.754 105.582 111.33 110.383C111.741 110.814 111.931 111.179 111.895 111.74C111.328 111.76 111.444 111.723 110.887 111.442C104.584 107.299 97.0152 106.123 89.7422 105.174C90.6242 99.6441 91.8351 94.1395 92.7861 88.6184C93.2219 86.0889 93.6611 83.6831 94.377 81.2092ZM132.91 81.3498C133.197 81.3916 133.437 81.4119 133.607 81.6555C133.96 82.1651 137.659 104.107 137.545 104.585C137.378 105.284 136.44 105.256 135.873 105.331C129.504 106.174 123.423 107.549 117.789 110.783C117.276 111.042 117.196 111.087 116.628 111.138L116.479 110.899C116.839 110.163 118.07 109.305 118.716 108.783C123.089 105.248 128.263 104.013 133.672 103.004L131.551 89.1047C131.258 87.1542 130.946 83.9057 130.385 82.1672C131.089 81.8849 131.969 81.5985 132.697 81.3391C132.783 81.3383 132.816 81.3359 132.91 81.3498ZM101.009 76.1594C105.237 76.2183 108.845 77.9336 111.938 80.8615C114.204 83.0079 112.616 85.2293 112.097 87.7033C111.94 88.4485 111.925 89.6582 111.908 90.4797C110.162 90.2045 109.012 90.3386 107.278 90.5305C107.082 91.7134 106.979 93.4361 106.871 94.6682C108.587 94.6368 110.305 94.6579 112.02 94.7307C112.089 97.7962 111.927 101.397 111.864 104.499C111.824 105.923 111.873 107.006 111.96 108.431C109.601 107.078 108.058 105.39 105.336 104.199C103.386 103.346 98.7424 102.096 97.3047 100.936C96.9378 99.5695 99.5772 79.1576 100.21 76.1662C100.476 76.1566 100.743 76.1536 101.009 76.1594ZM126.63 76.2131C127.248 76.2186 127.019 76.1447 127.515 76.465C128.143 77.89 130.651 98.3749 130.362 99.8557C130.227 100.55 129.911 101.055 129.328 101.461C127.796 102.527 124.975 103.107 123.18 103.89C121.07 104.81 119.441 106.017 117.53 107.256C117.13 107.516 116.856 107.714 116.381 107.612C116.076 106.99 116.183 105.791 116.193 105.05C116.193 103.419 116.016 96.3793 116.274 95.1486C117.08 94.4839 119.722 94.6852 120.875 94.7043C120.852 93.4661 120.933 91.9454 120.967 90.6867C118.914 90.4985 117.913 90.3517 115.912 90.8625C116.026 89.3832 115.849 87.411 115.757 85.8918C114.513 84.1795 114.507 82.5266 116.02 80.9416C119.148 77.663 122.231 76.49 126.63 76.2131ZM53.2744 95.7072C56.8937 95.4576 63.1984 95.6295 67.0361 95.6418C71.7229 95.6568 78.0509 95.4629 82.6016 95.7365C82.6025 96.6475 82.6807 97.88 82.168 98.6252C76.5383 98.2495 70.399 98.5842 64.751 98.716C60.8618 98.8068 56.8745 98.7728 52.9775 98.7766C52.9796 97.9294 52.8822 96.3712 53.2744 95.7072ZM173.376 95.6037C173.278 96.3724 173.243 98.3189 172.933 98.7101L172.464 98.7307C163.973 98.7416 155.486 98.4721 146.995 98.5353C146.363 98.5402 146.121 98.5345 145.653 98.1584C145.342 97.2235 145.407 96.102 146.429 95.7297C149.336 95.5584 152.452 95.6575 155.384 95.6408C161.369 95.6065 167.394 95.7301 173.376 95.6037ZM17.0137 61.5656C16.9049 67.5658 16.8798 73.5676 16.9385 79.5685C16.973 83.5533 17.1898 89.496 16.6982 93.3029C21.4265 93.4026 27.1739 94.2534 30.8506 91.4279C33.9335 88.3629 33.832 83.7086 33.7744 79.5998C33.7095 74.9723 34.4486 67.3517 30.957 63.8723C27.6986 60.6252 21.1045 61.9593 17.0137 61.5656ZM67.293 50.2414C71.7187 50.0957 76.5233 50.2393 80.9678 50.2248C82.911 50.2185 89.1854 50.1311 90.7793 50.5842C91.4771 51.3215 91.3071 53.2399 91.3164 54.3156C89.1653 54.3358 71.5674 54.2506 70.9062 54.7111L70.9033 55.3078C71.0997 61.7231 71.0447 68.688 70.9805 75.1252C69.1038 74.6466 68.4459 74.5987 66.5732 74.6008L66.5898 58.6017C66.5945 56.1873 66.5472 53.5039 66.7129 51.09C66.75 50.5497 66.9373 50.4987 67.293 50.2414ZM137.409 50.0568C144.964 50.0643 152.477 50.1833 160.047 50.1223C159.691 55.7336 160.256 62.7179 160.047 68.4201C159.997 69.7914 160.192 73.5241 159.876 74.6359C159.32 74.8959 159.283 74.7599 158.548 74.6281L156.533 74.8068C156.467 68.3 156.347 60.9793 156.664 54.5295C154.35 54.325 150.913 54.4044 148.543 54.3996C144.439 54.3643 140.335 54.3835 136.232 54.4572C136.192 53.1733 135.994 51.6492 136.304 50.4836C136.719 50.0189 136.634 50.1586 137.409 50.0568ZM112.471 40.8801C115.185 40.7752 115.152 40.9348 115.221 43.5598C115.256 44.8933 115.246 46.2618 115.25 47.5969C115.265 52.2293 115.249 56.8621 115.201 61.4943C115.19 63.2307 115.492 71.9105 114.901 72.8117C113.893 72.7972 113.058 72.9559 112.364 72.1496C112.073 68.7948 112.348 62.0827 112.334 58.426L112.289 47.8391C112.282 45.8495 112.21 42.7919 112.471 40.8801Z" fill="white"/>
</g>
</svg>
