<svg width="289" height="70" viewBox="0 0 289 70" fill="none" xmlns="http://www.w3.org/2000/svg">
<g clip-path="url(#clip0_55_1842)">
<path d="M31.9042 21.4845C32.072 21.4782 32.2399 21.4768 32.4078 21.4806C35.0752 21.5189 37.3506 22.6345 39.3014 24.5397C40.7317 25.9365 39.7296 27.382 39.4021 28.992C39.3036 29.4769 39.2938 30.2638 39.2835 30.7984C38.1818 30.6193 37.4567 30.7066 36.363 30.8315C36.2393 31.6012 36.1743 32.722 36.1062 33.5237C37.1887 33.5033 38.2715 33.5168 39.3532 33.5641C39.3968 35.5588 39.2955 37.9016 39.2558 39.9204C39.2303 40.8466 39.2614 41.5513 39.316 42.4785C37.8277 41.5979 36.8542 40.5003 35.1374 39.7257C33.9071 39.1705 30.9778 38.3567 30.0713 37.6016C29.8398 36.7126 31.5052 23.4298 31.9042 21.4845Z" fill="#FFCC01"/>
<path d="M48.6319 22.4808C49.0298 22.4844 48.8821 22.4374 49.201 22.6412C49.6058 23.5473 51.2203 36.5841 51.0345 37.5253C50.9473 37.9672 50.7442 38.2884 50.3688 38.5467C49.3825 39.2253 47.5662 39.5945 46.4105 40.0923C45.0523 40.6776 44.0031 41.4456 42.7732 42.234C42.5153 42.3993 42.3394 42.5259 42.0335 42.4614C41.8372 42.0652 41.9059 41.3024 41.9128 40.8305C41.9125 39.7924 41.7985 35.3131 41.9651 34.5301C42.4838 34.1071 44.1843 34.2354 44.9266 34.2475C44.9119 33.4596 44.9643 32.4918 44.9859 31.6908C43.6644 31.5711 43.0201 31.4775 41.7318 31.8025C41.8048 30.8612 41.6914 29.6067 41.6319 28.6399C40.8308 27.5502 40.827 26.4986 41.801 25.4899C43.8154 23.4036 45.7996 22.6571 48.6319 22.4808Z" fill="#FFCC01"/>
<path d="M15.4156 48.4434C15.2874 49.4885 15.3705 51.0275 15.3579 52.2139C15.3307 54.7957 15.4462 57.5542 15.3462 60.1943C17.2357 60.2202 19.1243 60.2132 21.0191 60.208C23.0825 60.2024 25.1529 60.201 27.2261 60.251L27.7613 60.2637L27.7115 60.7979C27.6936 60.9871 27.6912 61.1846 27.6919 61.3975C27.6927 61.6028 27.6963 61.8344 27.689 62.0547C27.6743 62.4951 27.6135 63.0018 27.3179 63.4482L27.2798 63.5059L27.2271 63.5508C26.7933 63.9246 26.2669 63.8673 26.0132 63.8721L24.3033 63.8984C20.2894 63.9461 16.118 63.8957 12.1499 63.9062L11.5992 63.9072L11.6499 63.3594C11.6929 62.9039 11.695 62.0359 11.6841 61.1162C11.6734 60.2167 11.6512 59.2727 11.6499 58.7207C11.6355 55.3561 11.6453 51.9914 11.6792 48.627L11.6831 48.2051L12.0992 48.1387C12.5442 48.067 13.0869 48.0157 13.5074 47.9658L13.5367 47.9639L14.8902 47.8838L15.4888 47.8486L15.4156 48.4434Z" fill="#FFCC01" stroke="#FFCC01"/>
<path d="M12.6121 6.15137C15.2856 6.06335 18.2126 6.14925 20.8641 6.14062C21.4438 6.13874 22.6903 6.12493 23.908 6.14551C24.5172 6.15581 25.1261 6.17484 25.6453 6.20898C26.0234 6.23385 26.3799 6.26814 26.66 6.31934L26.9129 6.37695L27.0447 6.41406L27.1395 6.51367C27.3229 6.70746 27.4242 6.95054 27.4852 7.17285C27.5472 7.39899 27.5777 7.64218 27.5926 7.87207C27.6211 8.3115 27.5971 8.82586 27.5994 9.10059L27.6033 9.60059L27.1043 9.60547C26.4831 9.61131 23.4448 9.60196 20.6199 9.625C19.19 9.63666 17.7921 9.65625 16.7283 9.69043C16.1955 9.70755 15.7519 9.72861 15.4324 9.75293C15.3869 9.7564 15.3447 9.76211 15.3055 9.76562C15.4213 13.62 15.3888 17.7949 15.3504 21.6455L15.3436 22.2822L14.7264 22.125C13.644 21.849 13.2905 21.823 12.1961 21.8242L11.6942 21.8252L11.6951 21.3242L11.7059 11.6865V9.4209C11.7117 8.6457 11.7304 7.86594 11.7811 7.12793C11.7961 6.90843 11.8479 6.6991 12.0018 6.51855C12.0688 6.43988 12.1407 6.38375 12.1932 6.3457C12.2194 6.32666 12.2474 6.30814 12.2693 6.29297C12.2929 6.2767 12.3139 6.26188 12.3358 6.24609L12.4598 6.15625L12.6121 6.15137Z" fill="#FFCC01" stroke="#FFCC01"/>
<path d="M68.9854 48.5166C68.9492 49.2474 68.9468 50.0852 68.9532 50.9336L68.9747 53.417L68.9542 63.4277L68.9532 63.9736L68.4102 63.9248C67.1802 63.8144 65.1346 63.8679 63.794 63.8701L63.795 63.8711L55.7442 63.8877L54.1251 63.8936L53.6729 63.8955L53.6261 63.4443C53.5303 62.5099 53.5513 61.6862 53.5606 60.792L53.5645 60.3486L54.005 60.2998C55.4534 60.1401 57.4508 60.1953 58.8702 60.2012H58.8692C61.2187 60.2037 63.5681 60.2278 65.9171 60.2734C65.8639 59.1004 65.8247 56.6965 65.8233 54.3828C65.8225 52.9802 65.836 51.5976 65.8683 50.5234C65.8844 49.9871 65.9055 49.5222 65.9327 49.168C65.9463 48.9916 65.9613 48.8361 65.9796 48.71C65.9947 48.6057 66.0203 48.4567 66.0753 48.3398L66.1974 48.0811L66.4825 48.0547C67.1527 47.9949 67.8453 47.9998 68.4806 47.9922L69.0118 47.9854L68.9854 48.5166Z" fill="#FFCC01" stroke="#FFCC01"/>
<path d="M54.865 6.03906C59.4275 6.04355 63.9373 6.11587 68.4959 6.0791L69.033 6.07422L68.9988 6.61035C68.8932 8.27573 68.924 10.1517 68.9666 12.0576C69.009 13.9545 69.0633 15.8834 68.9998 17.6191C68.9851 18.0204 69.0066 18.7552 69.0086 19.5303C69.0095 19.9074 69.0059 20.2871 68.989 20.6182C68.9728 20.9365 68.9434 21.254 68.8787 21.4814L68.8162 21.7012L68.6092 21.7979C68.4036 21.894 68.2168 21.9522 67.9851 21.9277C67.8964 21.9183 67.8092 21.8973 67.7478 21.8828C67.6933 21.87 67.636 21.8573 67.5672 21.8438L66.4285 21.9463L65.8894 21.9941L65.8836 21.4531C65.8453 17.7027 65.7798 13.479 65.9431 9.69727C64.6118 9.62066 62.8628 9.6579 61.5701 9.65527H61.5662C59.0988 9.63407 56.6309 9.64515 54.1638 9.68945L53.6707 9.69824L53.6551 9.20508C53.6493 9.0197 53.6385 8.82449 53.6267 8.61621C53.6151 8.41077 53.6034 8.19376 53.5984 7.97754C53.5886 7.55064 53.6038 7.08872 53.7156 6.66797L53.7459 6.55176L53.826 6.46289C53.9253 6.35184 54.0712 6.17311 54.3142 6.10449C54.4092 6.07771 54.5078 6.07146 54.5594 6.06738C54.6243 6.06225 54.6971 6.05643 54.7996 6.04297L54.8318 6.03906H54.865Z" fill="#FFCC01" stroke="#FFCC01"/>
<path d="M27.9779 25.4785C28.5817 25.5565 29.3927 25.8364 29.9919 26.0204C29.3709 27.3436 28.8423 34.0393 28.5446 35.8879C28.374 36.9464 28.1863 37.9069 27.9183 39.0152C31.8659 39.6136 35.7982 40.6439 38.6899 43.6314C38.9497 43.8998 39.0696 44.1264 39.0465 44.4758C38.6887 44.488 38.7623 44.4649 38.4099 44.2899C34.4276 41.7121 29.6449 40.9808 25.0493 40.3903C25.6066 36.9494 26.3722 33.5245 26.9731 30.089C27.2485 28.5151 27.5255 27.0179 27.9779 25.4785Z" fill="#FFCC01"/>
<path d="M52.8264 25.479C52.8833 25.4785 52.9051 25.4767 52.968 25.4856C53.1587 25.5122 53.318 25.5249 53.4311 25.6802C53.6645 26.0004 56.1232 39.9955 56.0476 40.3001C55.937 40.7461 55.3132 40.7279 54.9364 40.7757C50.7039 41.3128 46.6632 42.1897 42.9193 44.252C42.5786 44.4169 42.5258 44.446 42.148 44.4785L42.0493 44.3256C42.2885 43.8566 43.1061 43.31 43.5351 42.9773C46.4415 40.7232 49.8793 39.9356 53.474 39.2923L52.0642 30.4298C51.8695 29.1861 51.6627 27.115 51.2895 26.0066C51.7576 25.8266 52.3422 25.6444 52.8264 25.479Z" fill="#FFCC01"/>
<path d="M40.5861 48.3311C40.8358 48.3222 41.1375 48.3291 41.4161 48.4141L41.5343 48.4551L41.6515 48.5029L41.7325 48.5996C41.7921 48.6713 41.8238 48.7458 41.84 48.7881C41.8585 48.8365 41.8726 48.8852 41.8829 48.9287C41.9037 49.016 41.9188 49.1175 41.9318 49.2227C41.958 49.4349 41.9776 49.7091 41.9923 50.0176C42.0219 50.637 42.0346 51.434 42.0382 52.2402C42.0452 53.8319 42.0174 55.5551 42.0177 55.9521L42.0245 64.252V64.2529C42.0248 64.7264 42.0689 65.9404 42.0509 67.0479C42.0417 67.6112 42.0169 68.1773 41.9601 68.6514C41.9317 68.8882 41.8938 69.1134 41.8429 69.3086C41.7948 69.4929 41.7238 69.6974 41.6036 69.8594L41.462 70.0498L41.2257 70.0615L39.7745 70.1318L39.297 70.1543L39.2521 69.6787C39.1339 68.4273 39.1362 66.5225 39.1583 64.624C39.1806 62.7086 39.2232 60.7925 39.1906 59.4727C39.1721 58.7286 39.153 56.276 39.1642 53.9141C39.1698 52.7324 39.1834 51.5693 39.2081 50.6514C39.2205 50.1929 39.235 49.7917 39.254 49.4785C39.2718 49.1867 39.2953 48.9185 39.3361 48.7637L39.4279 48.416L39.7853 48.3916C39.973 48.3787 40.3116 48.3408 40.5861 48.3311Z" fill="#FFCC01" stroke="#FFCC01"/>
<path d="M39.8229 0.513672C40.2251 0.498138 40.5673 0.490112 40.8386 0.519531C41.1107 0.549068 41.4062 0.625029 41.6296 0.858398C41.8459 1.08459 41.9148 1.3777 41.9479 1.63574C41.9815 1.89768 41.9887 2.23236 41.9987 2.61426C42.02 3.42517 42.0141 4.26036 42.0163 5.05762C42.0256 7.85036 42.0161 10.6439 41.987 13.4365C41.9855 13.6913 41.9949 14.2033 42.0056 14.8525C42.0161 15.4987 42.0269 16.2712 42.027 17.0283C42.0271 17.7836 42.017 18.5318 41.9831 19.1289C41.9662 19.4265 41.9431 19.6967 41.9108 19.915C41.8947 20.024 41.8751 20.1294 41.8503 20.2227C41.8279 20.3066 41.7909 20.4209 41.7243 20.5225L41.5739 20.752L41.2985 20.748C41.0612 20.7447 40.6939 20.7659 40.3972 20.7217C40.0453 20.6692 39.6989 20.5234 39.3991 20.1748L39.2936 20.0527L39.28 19.8926C39.1023 17.8464 39.2685 13.7371 39.2604 11.585L39.2331 5.20801V5.20703C39.229 4.03686 39.1835 2.14279 39.3464 0.946289L39.403 0.530273L39.8229 0.513672Z" fill="#FFCC01" stroke="#FFCC01"/>
<path d="M4.15039 33.5391C6.3544 33.3871 10.1908 33.4917 12.4756 33.499C15.2686 33.508 19.1205 33.3908 21.8799 33.5566L22.3496 33.585V34.0547C22.3499 34.3042 22.3632 34.6667 22.334 35.0059C22.3048 35.3436 22.2296 35.7469 22.001 36.0791L21.8389 36.3135L21.5557 36.2949C18.1943 36.0706 14.5347 36.2707 11.1094 36.3506C8.75911 36.4054 6.34687 36.3845 4.00586 36.3867H3.50391L3.50586 35.8857C3.5064 35.6627 3.49223 35.259 3.50781 34.8994C3.51588 34.7133 3.53198 34.5173 3.56543 34.334C3.59776 34.1568 3.65174 33.9573 3.75391 33.7842L3.8877 33.5576L4.15039 33.5391Z" fill="#FFCC01" stroke="#FFCC01"/>
<path d="M77.0246 34.04C76.9954 34.2695 76.9819 34.6177 76.9416 35.0449C76.9232 35.2398 76.8992 35.4419 76.8654 35.6162C76.8485 35.7034 76.827 35.7942 76.799 35.8779C76.7736 35.9539 76.7301 36.0617 76.6535 36.1582L76.5119 36.3369L76.2844 36.3477L76.0021 36.3604H75.9807C71.4644 36.3662 67.0406 36.2418 62.5637 36.2363L60.6418 36.2422C60.4677 36.2435 60.2698 36.2471 60.0793 36.2012C59.8645 36.1494 59.6919 36.0461 59.5168 35.9053L59.4016 35.8135L59.3557 35.6738C59.243 35.3359 59.1843 34.9276 59.2756 34.542C59.3729 34.1313 59.6415 33.7596 60.1262 33.583L60.1945 33.5576L60.2678 33.5537C62.0362 33.4495 63.95 33.5089 65.6887 33.499C69.3152 33.4782 72.9167 33.5527 76.5187 33.4766L77.0978 33.4648L77.0246 34.04Z" fill="#FFCC01" stroke="#FFCC01"/>
<path d="M97.0726 25.4076V54H90.1798V25.4076H97.0726ZM108.187 37.308V42.6102H95.1088V37.308H108.187ZM109.307 25.4076V30.7294H95.1088V25.4076H109.307ZM106.911 50.8973C106.911 49.9547 107.251 49.1691 107.932 48.5407C108.613 47.8992 109.49 47.5785 110.564 47.5785C111.65 47.5785 112.527 47.8992 113.195 48.5407C113.876 49.1691 114.216 49.9547 114.216 50.8973C114.216 51.8399 113.876 52.6319 113.195 53.2734C112.527 53.9018 111.65 54.216 110.564 54.216C109.49 54.216 108.613 53.9018 107.932 53.2734C107.251 52.6319 106.911 51.8399 106.911 50.8973ZM130.378 44.299H123.269V38.9772H130.378C131.347 38.9772 132.132 38.8136 132.734 38.4863C133.337 38.159 133.775 37.7073 134.05 37.1313C134.338 36.5422 134.482 35.881 134.482 35.1479C134.482 34.3624 134.338 33.6358 134.05 32.9681C133.775 32.3004 133.337 31.7637 132.734 31.3578C132.132 30.9389 131.347 30.7294 130.378 30.7294H125.861V54H118.969V25.4076H130.378C132.669 25.4076 134.639 25.8266 136.289 26.6644C137.952 27.5023 139.228 28.6544 140.118 30.1207C141.008 31.5738 141.454 33.2365 141.454 35.1086C141.454 36.9545 141.008 38.5648 140.118 39.9395C139.228 41.3141 137.952 42.3876 136.289 43.16C134.639 43.9194 132.669 44.299 130.378 44.299ZM137.349 50.8973C137.349 49.9547 137.69 49.1691 138.37 48.5407C139.051 47.8992 139.928 47.5785 141.002 47.5785C142.089 47.5785 142.966 47.8992 143.633 48.5407C144.314 49.1691 144.655 49.9547 144.655 50.8973C144.655 51.8399 144.314 52.6319 143.633 53.2734C142.966 53.9018 142.089 54.216 141.002 54.216C139.928 54.216 139.051 53.9018 138.37 53.2734C137.69 52.6319 137.349 51.8399 137.349 50.8973ZM171.538 31.4167L164.567 54H157.164L167.67 25.4076H172.363L171.538 31.4167ZM177.312 54L170.321 31.4167L169.418 25.4076H174.17L184.735 54H177.312ZM177.037 43.3368V48.6586H162.368V43.3368H177.037ZM186.836 25.4076H198.088C200.288 25.4076 202.199 25.7349 203.823 26.3895C205.446 27.0441 206.696 28.0129 207.573 29.2959C208.464 30.5789 208.909 32.163 208.909 34.0482C208.909 35.6846 208.654 37.0527 208.143 38.1524C207.632 39.2521 206.919 40.162 206.002 40.8821C205.099 41.589 204.045 42.1716 202.841 42.6298L200.582 43.9063H191.137L191.097 38.5845H198.088C198.966 38.5845 199.692 38.4274 200.268 38.1132C200.844 37.799 201.276 37.3538 201.564 36.7778C201.865 36.1887 202.016 35.4883 202.016 34.6766C202.016 33.8518 201.865 33.1448 201.564 32.5557C201.263 31.9666 200.818 31.5149 200.229 31.2007C199.653 30.8865 198.939 30.7294 198.088 30.7294H193.729V54H186.836V25.4076ZM202.487 54L196.164 41.3534L203.469 41.3141L209.871 53.7054V54H202.487ZM216.489 25.4076H222.105L228.488 45.3005L234.87 25.4076H240.486L230.765 54H226.21L216.489 25.4076ZM213.072 25.4076H218.885L219.965 47.3232V54H213.072V25.4076ZM238.09 25.4076H243.923V54H237.01V47.3232L238.09 25.4076ZM252.976 25.4076L258.239 37.8186L263.521 25.4076H270.944L261.754 43.7295V54H254.743V43.7295L245.533 25.4076H252.976Z" fill="white"/>
</g>
<defs>
<clipPath id="clip0_55_1842">
<rect width="289" height="69.8417" fill="white"/>
</clipPath>
</defs>
</svg>
