<svg width="310" height="84" viewBox="0 0 310 84" fill="none" xmlns="http://www.w3.org/2000/svg">
<rect x="1.59401" y="2.84401" width="78.1063" height="78.1063" rx="17.5341" fill="#363636"/>
<rect x="1.59401" y="2.84401" width="78.1063" height="78.1063" rx="17.5341" stroke="#4E4D4D" stroke-width="3.18801"/>
<path d="M33.9528 30.8212C34.0872 30.8161 34.2216 30.8151 34.356 30.8181C36.4919 30.8487 38.3138 31.742 39.8759 33.2675C41.0211 34.3859 40.2187 35.5434 39.9565 36.8325C39.8776 37.2208 39.8698 37.8509 39.8615 38.2789C38.9794 38.1355 38.3988 38.2054 37.5231 38.3054C37.424 38.9217 37.3719 39.8191 37.3174 40.4611C38.1842 40.4447 39.0512 40.4556 39.9173 40.4935C39.9522 42.0907 39.8711 43.9666 39.8393 45.583C39.8189 46.3246 39.8438 46.8889 39.8875 47.6313C38.6959 46.9262 37.9163 46.0474 36.5417 45.4271C35.5566 44.9825 33.2111 44.3309 32.4852 43.7263C32.2998 43.0145 33.6333 32.3788 33.9528 30.8212Z" fill="#FFCC01"/>
<path d="M47.3469 31.619C47.6656 31.6219 47.5473 31.5842 47.8027 31.7475C48.1267 32.4729 49.4195 42.9117 49.2707 43.6653C49.2009 44.0191 49.0383 44.2763 48.7377 44.4832C47.948 45.0265 46.4936 45.3221 45.5683 45.7207C44.4807 46.1893 43.6406 46.8043 42.6559 47.4356C42.4494 47.5679 42.3085 47.6693 42.0636 47.6177C41.9064 47.3005 41.9614 46.6896 41.9669 46.3118C41.9667 45.4806 41.8754 41.894 42.0088 41.267C42.4241 40.9283 43.7857 41.031 44.3801 41.0408C44.3683 40.4099 44.4103 39.635 44.4275 38.9936C43.3695 38.8977 42.8535 38.8228 41.822 39.083C41.8804 38.3293 41.7896 37.3248 41.742 36.5507C41.1005 35.6782 41.0975 34.8361 41.8774 34.0285C43.4903 32.3579 45.0791 31.7601 47.3469 31.619Z" fill="#FFCC01"/>
<path d="M20.8207 52.417C20.7188 53.2488 20.7849 54.4698 20.7748 55.4277C20.7533 57.4651 20.8432 59.6536 20.7679 61.7471C22.2562 61.7666 23.7443 61.7619 25.2377 61.7578C26.8896 61.7533 28.5475 61.7519 30.2084 61.792L30.7133 61.8037L30.6664 62.3066C30.6524 62.4547 30.6502 62.6102 30.6508 62.7803C30.6513 62.9433 30.6547 63.1314 30.6488 63.3096C30.6369 63.6656 30.5871 64.0877 30.3392 64.4619L30.3031 64.5156L30.2543 64.5586C29.8826 64.8788 29.4264 64.8284 29.2367 64.832C25.6109 64.9044 21.7644 64.8497 18.1351 64.8594L17.6166 64.8604L17.6654 64.3447C17.6994 63.9845 17.7015 63.2932 17.6927 62.5557C17.6842 61.8375 17.6654 61.0799 17.6644 60.6377L17.6615 56.5957C17.6654 55.2485 17.6743 53.9009 17.6879 52.5537L17.6918 52.1572L18.0844 52.0938C18.4425 52.0361 18.8805 51.9957 19.2142 51.9561L19.2279 51.9541L19.2416 51.9531L20.3256 51.8896L20.89 51.8564L20.8207 52.417Z" fill="#FFCC01" stroke="#FFCC01" stroke-width="0.941682"/>
<path d="M18.5037 18.4736C20.6454 18.4031 22.9936 18.4717 25.113 18.4648C25.5765 18.4633 26.5755 18.4523 27.5515 18.4688C28.0398 18.477 28.5286 18.4921 28.946 18.5195C29.2485 18.5394 29.5377 18.5673 29.7673 18.6094L29.9753 18.6562L30.0994 18.6914L30.1882 18.7852C30.3461 18.9519 30.4318 19.159 30.4822 19.3428C30.5336 19.5302 30.5589 19.7305 30.571 19.917C30.594 20.2709 30.5751 20.6923 30.5769 20.9053L30.5808 21.375L30.1101 21.3799C29.6163 21.3845 27.1743 21.3771 24.9177 21.3955C23.773 21.4048 22.6543 21.4209 21.8035 21.4482C21.3772 21.4619 21.0235 21.4777 20.7693 21.4971C20.7569 21.498 20.7449 21.4991 20.7332 21.5C20.8237 24.5698 20.7989 27.8886 20.7683 30.9502L20.7625 31.5508L20.1814 31.4023C19.3214 31.183 19.0441 31.1631 18.1726 31.1641H17.7L17.7009 30.6924L17.7087 22.9756L17.7097 21.1611C17.7144 20.5395 17.7286 19.9136 17.7693 19.3213L17.7859 19.1836C17.81 19.0466 17.8601 18.9124 17.9626 18.792C18.0217 18.7227 18.0851 18.6742 18.1287 18.6426C18.1505 18.6267 18.1738 18.6106 18.1912 18.5986C18.2099 18.5857 18.2263 18.5746 18.2429 18.5625L18.3591 18.4775L18.5037 18.4736Z" fill="#FFCC01" stroke="#FFCC01" stroke-width="0.941682"/>
<path d="M63.7153 52.4707C63.6573 53.6389 63.707 55.1456 63.7065 56.3906V56.3916L63.6899 64.4072L63.6889 64.9209L63.1772 64.875C62.1966 64.787 60.5651 64.8293 59.4877 64.8311L59.4887 64.832L53.0424 64.8457L51.7465 64.8496L51.3198 64.8516L51.2758 64.4268C51.1986 63.6737 51.2157 63.0097 51.2231 62.2949L51.227 61.877L51.642 61.832C52.807 61.7036 54.4123 61.7473 55.5453 61.752H55.5444C57.401 61.7539 59.2575 61.773 61.1137 61.8086C61.0727 60.8411 61.0435 58.9667 61.0424 57.1641C61.0417 56.0406 61.0517 54.9324 61.0776 54.0713C61.0905 53.6418 61.1074 53.2685 61.1293 52.9834C61.1402 52.8413 61.1534 52.7146 61.1684 52.6113C61.1804 52.5288 61.2014 52.4002 61.2504 52.2959L61.3657 52.0508L61.6342 52.0273C62.1742 51.9792 62.7321 51.9827 63.2387 51.9766L63.7397 51.9707L63.7153 52.4707Z" fill="#FFCC01" stroke="#FFCC01" stroke-width="0.941682"/>
<path d="M52.3382 18.3848C55.9932 18.3884 59.6023 18.4455 63.2523 18.416L63.7581 18.4121L63.7259 18.917C63.6626 19.9147 63.6607 21.0076 63.678 22.1357L63.7454 25.5488C63.7542 26.299 63.7523 27.0335 63.7269 27.7295C63.7151 28.0491 63.7321 28.6326 63.7337 29.2568C63.7345 29.5594 63.7317 29.8657 63.7181 30.1328C63.7051 30.3877 63.6805 30.6483 63.6263 30.8389L63.5677 31.0459L63.3734 31.1367C63.2033 31.2163 63.0401 31.2695 62.8362 31.248C62.7597 31.24 62.685 31.2213 62.637 31.21C62.5962 31.2004 62.5544 31.1915 62.5052 31.1816L61.6028 31.2617L61.096 31.3076L61.0901 30.7979C61.0597 27.8186 61.008 24.463 61.1351 21.4502C60.0818 21.3941 58.7225 21.423 57.7064 21.4209H57.7034C55.7285 21.4039 53.7533 21.4138 51.7786 21.4492L51.3138 21.457L51.2991 20.9932C51.2945 20.8459 51.2852 20.6905 51.2757 20.5234C51.2664 20.3589 51.2572 20.1834 51.2532 20.0088C51.2454 19.6652 51.2568 19.2871 51.3489 18.9404L51.3782 18.832L51.4534 18.7471C51.5294 18.6621 51.6602 18.5009 51.8782 18.4395C51.962 18.4158 52.0476 18.4104 52.0872 18.4072C52.1393 18.4031 52.1966 18.3992 52.2767 18.3887L52.3069 18.3848H52.3382Z" fill="#FFCC01" stroke="#FFCC01" stroke-width="0.941682"/>
<path d="M30.8093 34.0195C31.2929 34.082 31.9422 34.3061 32.422 34.4534C31.9248 35.5129 31.5015 40.8742 31.2631 42.3544C31.1266 43.202 30.9762 43.9711 30.7616 44.8585C33.9225 45.3376 37.0712 46.1626 39.3865 48.5547C39.5946 48.7696 39.6906 48.9511 39.6721 49.2308C39.3856 49.2406 39.4446 49.2221 39.1624 49.082C35.9737 47.0179 32.1441 46.4324 28.4644 45.9595C28.9107 43.2044 29.5237 40.462 30.0049 37.7112C30.2253 36.4509 30.4471 35.2522 30.8093 34.0195Z" fill="#FFCC01"/>
<path d="M50.7055 34.0199C50.7511 34.0195 50.7685 34.0181 50.8189 34.0252C50.9716 34.0465 51.0992 34.0567 51.1898 34.181C51.3766 34.4374 53.3453 45.6434 53.2848 45.8873C53.1962 46.2445 52.6968 46.2299 52.3951 46.2682C49.006 46.6982 45.7706 47.4004 42.7728 49.0516C42.5 49.1836 42.4578 49.207 42.1552 49.233L42.0762 49.1106C42.2677 48.7351 42.9224 48.2974 43.2659 48.031C45.5931 46.2261 48.3458 45.5955 51.2241 45.0803L50.0953 37.9841C49.9393 36.9883 49.7738 35.3299 49.4749 34.4423C49.8497 34.2982 50.3179 34.1524 50.7055 34.0199Z" fill="#FFCC01"/>
<path d="M40.9023 52.248C41.1039 52.2409 41.3549 52.2467 41.5898 52.3184L41.6895 52.3525L41.8008 52.3975L41.877 52.4893C41.9315 52.555 41.9605 52.6224 41.9746 52.6592C41.991 52.7018 42.002 52.7446 42.0107 52.7812C42.0283 52.8548 42.0422 52.939 42.0527 53.0244C42.074 53.197 42.0897 53.4185 42.1016 53.666C42.1253 54.1635 42.1348 54.8026 42.1377 55.4482C42.1433 56.7203 42.1209 58.1073 42.1211 58.4209L42.127 65.0674C42.1272 65.4406 42.1629 66.4207 42.1484 67.3066C42.1411 67.7585 42.1211 68.2146 42.0752 68.5977C42.0523 68.7888 42.0213 68.9724 41.9795 69.1328C41.9402 69.2833 41.8799 69.4579 41.7754 69.5986L41.6426 69.7783L41.4199 69.7891L40.2578 69.8447L39.8086 69.8662L39.7666 69.4189C39.6715 68.4125 39.6737 66.8836 39.6914 65.3643C39.7093 63.8291 39.7429 62.2973 39.7168 61.2422C39.702 60.6455 39.6864 58.6806 39.6953 56.7891C39.6998 55.8427 39.7106 54.9106 39.7305 54.1748C39.7404 53.8074 39.7523 53.4853 39.7676 53.2334C39.7817 53.0016 39.8012 52.7795 39.8359 52.6475L39.9219 52.3203L40.2588 52.2969C40.4026 52.287 40.6823 52.2558 40.9023 52.248Z" fill="#FFCC01" stroke="#FFCC01" stroke-width="0.941682"/>
<path d="M40.2906 13.96C40.6119 13.9475 40.8915 13.9406 41.1148 13.9648C41.3387 13.9892 41.5947 14.0533 41.7906 14.2578C41.9801 14.4558 42.039 14.7093 42.066 14.9199C42.0934 15.1342 42.098 15.4069 42.106 15.7109L42.1187 16.6953C42.1199 17.0236 42.1198 17.3504 42.1207 17.6689C42.1281 19.9054 42.1196 22.1425 42.0963 24.3789C42.0951 24.582 42.1034 24.9905 42.1119 25.5107C42.1203 26.0282 42.1294 26.6471 42.1295 27.2539C42.1295 27.8592 42.1206 28.4602 42.0933 28.9404C42.0797 29.1796 42.061 29.3983 42.0347 29.5762C42.0217 29.6646 42.0057 29.7511 41.9849 29.8291C41.9664 29.8984 41.9351 29.999 41.8755 30.0898L41.733 30.3066L41.4742 30.3027C41.2935 30.3002 40.9863 30.3176 40.7427 30.2812C40.4473 30.2371 40.1537 30.1133 39.9009 29.8193L39.8013 29.7041L39.7886 29.5537C39.6817 28.3222 39.7294 26.1577 39.7574 24.4287L39.773 22.8955L39.7505 17.7891C39.7473 16.8561 39.7111 15.3317 39.8423 14.3672L39.8961 13.9756L40.2906 13.96Z" fill="#FFCC01" stroke="#FFCC01" stroke-width="0.941682"/>
<path d="M11.7253 40.4033C13.4934 40.2814 16.5715 40.3653 18.3972 40.3711C20.6293 40.3782 23.7194 40.284 25.9313 40.417L26.3727 40.4443L26.3737 40.8867C26.3739 41.083 26.3838 41.3787 26.36 41.6543C26.3364 41.9286 26.2753 42.2666 26.0817 42.5479L25.9294 42.7686L25.6618 42.751C22.9746 42.5717 20.0502 42.7309 17.3044 42.7949C15.4214 42.8389 13.4885 42.8224 11.6149 42.8242L11.1423 42.8252L11.1432 42.3525C11.1437 42.1786 11.1327 41.85 11.1452 41.5605C11.1517 41.4098 11.1655 41.2488 11.1931 41.0977C11.2196 40.9522 11.2642 40.7827 11.3522 40.6338L11.4782 40.4209L11.7253 40.4033Z" fill="#FFCC01" stroke="#FFCC01" stroke-width="0.941682"/>
<path d="M70.1517 40.8838C70.1284 41.0672 70.1173 41.3368 70.0844 41.6855C70.0695 41.8424 70.0506 42.0073 70.0228 42.1504C70.009 42.2218 69.9909 42.2972 69.9672 42.3682C69.9458 42.4319 69.9083 42.5283 69.8392 42.6152L69.7064 42.7832L69.4916 42.793L69.266 42.8027L69.2552 42.8037H69.2455C65.1064 42.809 61.0806 42.6783 56.9642 42.709C56.8271 42.71 56.659 42.713 56.4965 42.6738C56.3109 42.6291 56.1631 42.5405 56.0179 42.4238L55.9105 42.3369L55.8666 42.2051C55.7738 41.9266 55.7241 41.5861 55.8011 41.2607C55.8838 40.9118 56.1129 40.5929 56.5258 40.4424L56.5912 40.4189L56.6595 40.415C58.0779 40.3315 59.615 40.379 61.0033 40.3711C63.9102 40.3544 66.7901 40.4145 69.6742 40.3535L70.2201 40.3418L70.1517 40.8838Z" fill="#FFCC01" stroke="#FFCC01" stroke-width="0.941682"/>
<path d="M114.662 27H106.518V4.02516H114.73C117.041 4.02516 119.03 4.48511 120.698 5.405C122.366 6.31741 123.648 7.62994 124.546 9.34258C125.451 11.0552 125.903 13.1044 125.903 15.4901C125.903 17.8834 125.451 19.94 124.546 21.6601C123.648 23.3803 122.358 24.7003 120.675 25.6202C119 26.5401 116.996 27 114.662 27ZM111.375 22.8381H114.46C115.896 22.8381 117.104 22.5838 118.084 22.0752C119.071 21.5592 119.812 20.7627 120.305 19.6857C120.806 18.6013 121.057 17.2028 121.057 15.4901C121.057 13.7925 120.806 12.4051 120.305 11.3282C119.812 10.2513 119.075 9.4585 118.095 8.94994C117.115 8.44139 115.908 8.18711 114.472 8.18711H111.375V22.8381ZM129.412 27V9.76887H134.045V12.7753H134.224C134.538 11.7059 135.065 10.8982 135.806 10.3522C136.546 9.79879 137.399 9.52207 138.364 9.52207C138.603 9.52207 138.861 9.53703 139.138 9.56694C139.414 9.59686 139.657 9.63799 139.867 9.69034V13.9308C139.643 13.8635 139.332 13.8037 138.936 13.7513C138.539 13.699 138.177 13.6728 137.848 13.6728C137.145 13.6728 136.516 13.8261 135.963 14.1327C135.417 14.4319 134.983 14.8507 134.662 15.3892C134.348 15.9277 134.19 16.5484 134.19 17.2514V27H129.412ZM149.388 27.3365C147.616 27.3365 146.09 26.9776 144.811 26.2596C143.54 25.5342 142.56 24.5096 141.872 23.1858C141.184 21.8546 140.84 20.2803 140.84 18.463C140.84 16.6905 141.184 15.1349 141.872 13.7962C142.56 12.4575 143.529 11.4142 144.778 10.6663C146.034 9.91845 147.507 9.54451 149.198 9.54451C150.334 9.54451 151.393 9.72774 152.372 10.0942C153.36 10.4532 154.22 10.9954 154.953 11.7208C155.693 12.4463 156.269 13.3587 156.68 14.4581C157.091 15.55 157.297 16.8288 157.297 18.2947V19.6072H142.747V16.6456H152.799C152.799 15.9576 152.649 15.348 152.35 14.8171C152.051 14.2861 151.636 13.871 151.105 13.5718C150.581 13.2652 149.972 13.1119 149.276 13.1119C148.551 13.1119 147.908 13.2802 147.347 13.6167C146.793 13.9458 146.359 14.3908 146.045 14.9517C145.731 15.5051 145.57 16.1221 145.563 16.8027V19.6184C145.563 20.471 145.72 21.2077 146.034 21.8284C146.356 22.4492 146.808 22.9278 147.391 23.2643C147.975 23.6009 148.667 23.7692 149.467 23.7692C149.998 23.7692 150.484 23.6944 150.925 23.5448C151.366 23.3952 151.744 23.1709 152.058 22.8717C152.372 22.5726 152.612 22.2061 152.776 21.7723L157.196 22.064C156.972 23.126 156.512 24.0534 155.816 24.8461C155.128 25.6314 154.238 26.2446 153.146 26.6859C152.062 27.1197 150.809 27.3365 149.388 27.3365ZM165.329 27.3253C164.23 27.3253 163.25 27.1346 162.39 26.7532C161.53 26.3643 160.85 25.7922 160.348 25.0368C159.855 24.274 159.608 23.3242 159.608 22.1874C159.608 21.2301 159.784 20.4261 160.135 19.7755C160.487 19.1248 160.965 18.6013 161.571 18.2049C162.177 17.8086 162.865 17.5094 163.635 17.3075C164.413 17.1056 165.228 16.9635 166.081 16.8812C167.083 16.7765 167.891 16.6793 168.504 16.5895C169.117 16.4923 169.562 16.3502 169.839 16.1632C170.116 15.9763 170.254 15.6995 170.254 15.3331V15.2658C170.254 14.5553 170.03 14.0056 169.581 13.6167C169.14 13.2278 168.512 13.0334 167.696 13.0334C166.836 13.0334 166.152 13.2241 165.643 13.6055C165.135 13.9794 164.798 14.4506 164.634 15.019L160.214 14.66C160.438 13.613 160.879 12.708 161.538 11.9452C162.196 11.1749 163.045 10.5841 164.084 10.1727C165.131 9.75391 166.343 9.54451 167.719 9.54451C168.676 9.54451 169.592 9.65669 170.467 9.88105C171.35 10.1054 172.131 10.4532 172.812 10.9243C173.5 11.3955 174.042 12.0013 174.439 12.7417C174.835 13.4746 175.033 14.3534 175.033 15.378V27H170.501V24.6105H170.366C170.09 25.149 169.719 25.6239 169.256 26.0352C168.792 26.4391 168.235 26.7569 167.584 26.9888C166.934 27.2131 166.182 27.3253 165.329 27.3253ZM166.698 24.0272C167.401 24.0272 168.022 23.8888 168.56 23.6121C169.099 23.3279 169.521 22.9465 169.828 22.4679C170.134 21.9892 170.288 21.447 170.288 20.8412V19.0127C170.138 19.1099 169.933 19.1996 169.671 19.2819C169.417 19.3567 169.129 19.4277 168.807 19.495C168.485 19.5549 168.164 19.611 167.842 19.6633C167.521 19.7082 167.229 19.7493 166.967 19.7867C166.406 19.869 165.916 19.9999 165.498 20.1793C165.079 20.3588 164.753 20.6019 164.522 20.9085C164.29 21.2077 164.174 21.5816 164.174 22.0303C164.174 22.681 164.409 23.1783 164.881 23.5224C165.359 23.8589 165.965 24.0272 166.698 24.0272ZM178.741 27V9.76887H183.295V12.809H183.497C183.856 11.7994 184.454 11.0029 185.292 10.4195C186.13 9.83618 187.132 9.54451 188.299 9.54451C189.48 9.54451 190.486 9.83992 191.316 10.4307C192.146 11.0141 192.7 11.8068 192.977 12.809H193.156C193.508 11.8218 194.143 11.0328 195.063 10.442C195.991 9.84366 197.086 9.54451 198.35 9.54451C199.958 9.54451 201.263 10.0568 202.265 11.0814C203.275 12.0985 203.78 13.5419 203.78 15.4116V27H199.012V16.3539C199.012 15.3967 198.758 14.6787 198.249 14.2001C197.741 13.7214 197.105 13.4821 196.342 13.4821C195.474 13.4821 194.798 13.7588 194.312 14.3122C193.825 14.8582 193.582 15.5799 193.582 16.4773V27H188.949V16.253C188.949 15.4079 188.706 14.7348 188.22 14.2337C187.741 13.7326 187.109 13.4821 186.324 13.4821C185.793 13.4821 185.315 13.6167 184.888 13.8859C184.469 14.1477 184.137 14.5179 183.89 14.9965C183.643 15.4677 183.52 16.0211 183.52 16.6568V27H178.741ZM221.891 14.6824L217.516 14.9517C217.442 14.5777 217.281 14.2412 217.034 13.942C216.787 13.6354 216.462 13.3923 216.058 13.2129C215.662 13.0259 215.187 12.9324 214.633 12.9324C213.893 12.9324 213.268 13.0895 212.76 13.4036C212.251 13.7102 211.997 14.1215 211.997 14.6376C211.997 15.0489 212.162 15.3967 212.491 15.6809C212.82 15.965 213.384 16.1931 214.185 16.3652L217.303 16.9934C218.978 17.3374 220.227 17.8908 221.05 18.6537C221.873 19.4165 222.284 20.4187 222.284 21.6601C222.284 22.7894 221.951 23.7804 221.286 24.633C220.628 25.4855 219.723 26.1512 218.571 26.6298C217.427 27.101 216.107 27.3365 214.611 27.3365C212.33 27.3365 210.512 26.8616 209.159 25.9118C207.813 24.9546 207.024 23.6532 206.792 22.0079L211.492 21.7611C211.634 22.4566 211.978 22.9876 212.524 23.3541C213.07 23.7131 213.769 23.8926 214.622 23.8926C215.46 23.8926 216.133 23.7318 216.641 23.4102C217.157 23.0811 217.419 22.6586 217.427 22.1425C217.419 21.7088 217.236 21.3535 216.877 21.0768C216.518 20.7926 215.964 20.5757 215.217 20.4261L212.233 19.8316C210.55 19.495 209.297 18.9117 208.474 18.0815C207.659 17.2514 207.252 16.1931 207.252 14.9068C207.252 13.7999 207.551 12.8464 208.149 12.0462C208.755 11.2459 209.604 10.6289 210.696 10.1952C211.795 9.76139 213.081 9.54451 214.555 9.54451C216.731 9.54451 218.444 10.0045 219.693 10.9243C220.949 11.8442 221.682 13.0969 221.891 14.6824ZM222.163 8.03005V4.02516H241.032V8.03005H233.999V27H229.197V8.03005H222.163ZM242.261 27V9.76887H246.894V12.7753H247.073C247.388 11.7059 247.915 10.8982 248.655 10.3522C249.396 9.79879 250.248 9.52207 251.213 9.52207C251.452 9.52207 251.71 9.53703 251.987 9.56694C252.264 9.59686 252.507 9.63799 252.716 9.69034V13.9308C252.492 13.8635 252.181 13.8037 251.785 13.7513C251.389 13.699 251.026 13.6728 250.697 13.6728C249.994 13.6728 249.366 13.8261 248.812 14.1327C248.266 14.4319 247.833 14.8507 247.511 15.3892C247.197 15.9277 247.04 16.5484 247.04 17.2514V27H242.261ZM259.607 27.3253C258.508 27.3253 257.528 27.1346 256.668 26.7532C255.808 26.3643 255.127 25.7922 254.626 25.0368C254.132 24.274 253.886 23.3242 253.886 22.1874C253.886 21.2301 254.061 20.4261 254.413 19.7755C254.764 19.1248 255.243 18.6013 255.849 18.2049C256.455 17.8086 257.143 17.5094 257.913 17.3075C258.691 17.1056 259.506 16.9635 260.359 16.8812C261.361 16.7765 262.168 16.6793 262.782 16.5895C263.395 16.4923 263.84 16.3502 264.117 16.1632C264.393 15.9763 264.532 15.6995 264.532 15.3331V15.2658C264.532 14.5553 264.307 14.0056 263.859 13.6167C263.417 13.2278 262.789 13.0334 261.974 13.0334C261.114 13.0334 260.43 13.2241 259.921 13.6055C259.413 13.9794 259.076 14.4506 258.911 15.019L254.491 14.66C254.716 13.613 255.157 12.708 255.815 11.9452C256.473 11.1749 257.322 10.5841 258.362 10.1727C259.409 9.75391 260.62 9.54451 261.996 9.54451C262.954 9.54451 263.87 9.65669 264.745 9.88105C265.627 10.1054 266.409 10.4532 267.089 10.9243C267.778 11.3955 268.32 12.0013 268.716 12.7417C269.112 13.4746 269.311 14.3534 269.311 15.378V27H264.779V24.6105H264.644C264.367 25.149 263.997 25.6239 263.533 26.0352C263.07 26.4391 262.512 26.7569 261.862 26.9888C261.211 27.2131 260.46 27.3253 259.607 27.3253ZM260.976 24.0272C261.679 24.0272 262.299 23.8888 262.838 23.6121C263.376 23.3279 263.799 22.9465 264.105 22.4679C264.412 21.9892 264.565 21.447 264.565 20.8412V19.0127C264.416 19.1099 264.21 19.1996 263.948 19.2819C263.694 19.3567 263.406 19.4277 263.085 19.495C262.763 19.5549 262.441 19.611 262.12 19.6633C261.798 19.7082 261.507 19.7493 261.245 19.7867C260.684 19.869 260.194 19.9999 259.775 20.1793C259.356 20.3588 259.031 20.6019 258.799 20.9085C258.567 21.2077 258.451 21.5816 258.451 22.0303C258.451 22.681 258.687 23.1783 259.158 23.5224C259.637 23.8589 260.243 24.0272 260.976 24.0272ZM280.804 27.3365C279.039 27.3365 277.521 26.9626 276.249 26.2147C274.985 25.4594 274.013 24.4123 273.332 23.0736C272.659 21.7349 272.323 20.1943 272.323 18.4517C272.323 16.6868 272.663 15.1386 273.344 13.8074C274.032 12.4687 275.008 11.4254 276.272 10.6775C277.535 9.92219 279.039 9.54451 280.781 9.54451C282.285 9.54451 283.601 9.81748 284.73 10.3634C285.859 10.9094 286.753 11.676 287.411 12.6632C288.069 13.6504 288.432 14.8096 288.499 16.1408H283.99C283.863 15.2807 283.526 14.5889 282.98 14.0654C282.442 13.5344 281.735 13.2689 280.86 13.2689C280.119 13.2689 279.472 13.4709 278.919 13.8747C278.373 14.2711 277.947 14.8507 277.64 15.6135C277.334 16.3764 277.18 17.3 277.18 18.3844C277.18 19.4838 277.33 20.4187 277.629 21.189C277.936 21.9593 278.366 22.5464 278.919 22.9502C279.472 23.3541 280.119 23.556 280.86 23.556C281.406 23.556 281.896 23.4438 282.329 23.2195C282.771 22.9951 283.133 22.6698 283.418 22.2435C283.709 21.8097 283.9 21.2899 283.99 20.6842H288.499C288.425 22.0004 288.066 23.1596 287.422 24.1618C286.787 25.1565 285.908 25.9343 284.786 26.4952C283.664 27.0561 282.337 27.3365 280.804 27.3365ZM295.889 22.0416L295.901 16.3091H296.596L302.115 9.76887H307.601L300.186 18.4293H299.053L295.889 22.0416ZM291.559 27V4.02516H296.338V27H291.559ZM302.329 27L297.258 19.495L300.444 16.1184L307.926 27H302.329ZM106.518 59V36.0252H121.73V40.0301H111.375V45.5045H120.72V49.5094H111.375V59H106.518ZM126.621 59.2917C125.881 59.2917 125.245 59.0299 124.714 58.5064C124.19 57.9754 123.929 57.3397 123.929 56.5993C123.929 55.8664 124.19 55.2382 124.714 54.7147C125.245 54.1911 125.881 53.9294 126.621 53.9294C127.339 53.9294 127.967 54.1911 128.506 54.7147C129.044 55.2382 129.313 55.8664 129.313 56.5993C129.313 57.0929 129.186 57.5454 128.932 57.9567C128.685 58.3606 128.36 58.6859 127.956 58.9327C127.552 59.172 127.107 59.2917 126.621 59.2917ZM133.327 59V36.0252H142.391C144.134 36.0252 145.618 36.358 146.845 37.0236C148.071 37.6817 149.006 38.5979 149.649 39.772C150.3 40.9387 150.625 42.2849 150.625 43.8106C150.625 45.3363 150.296 46.6824 149.638 47.8491C148.98 49.0158 148.026 49.9245 146.777 50.5751C145.536 51.2258 144.033 51.5511 142.268 51.5511H136.49V47.6584H141.482C142.417 47.6584 143.187 47.4976 143.793 47.176C144.406 46.847 144.863 46.3945 145.162 45.8186C145.468 45.2353 145.622 44.5659 145.622 43.8106C145.622 43.0477 145.468 42.3821 145.162 41.8137C144.863 41.2379 144.406 40.7929 143.793 40.4788C143.18 40.1572 142.402 39.9964 141.46 39.9964H138.184V59H133.327ZM155.404 59.2917C154.664 59.2917 154.028 59.0299 153.497 58.5064C152.973 57.9754 152.712 57.3397 152.712 56.5993C152.712 55.8664 152.973 55.2382 153.497 54.7147C154.028 54.1911 154.664 53.9294 155.404 53.9294C156.122 53.9294 156.75 54.1911 157.289 54.7147C157.827 55.2382 158.096 55.8664 158.096 56.5993C158.096 57.0929 157.969 57.5454 157.715 57.9567C157.468 58.3606 157.143 58.6859 156.739 58.9327C156.335 59.172 155.89 59.2917 155.404 59.2917ZM172.301 59H167.096L175.027 36.0252H181.287L189.207 59H184.002L178.247 41.2753H178.068L172.301 59ZM171.976 49.9694H184.271V53.7611H171.976V49.9694ZM191.973 59V36.0252H201.037C202.772 36.0252 204.253 36.3355 205.479 36.9563C206.713 37.5695 207.652 38.4408 208.295 39.5701C208.946 40.6919 209.271 42.0119 209.271 43.5301C209.271 45.0558 208.942 46.3683 208.284 47.4677C207.626 48.5596 206.672 49.3972 205.423 49.9806C204.182 50.5639 202.678 50.8556 200.913 50.8556H194.844V46.9517H200.128C201.056 46.9517 201.826 46.8245 202.439 46.5703C203.052 46.316 203.509 45.9346 203.808 45.426C204.114 44.9174 204.268 44.2855 204.268 43.5301C204.268 42.7673 204.114 42.1241 203.808 41.6006C203.509 41.0771 203.049 40.6807 202.428 40.4115C201.815 40.1348 201.041 39.9964 200.106 39.9964H196.83V59H191.973ZM204.38 48.5447L210.09 59H204.728L199.141 48.5447H204.38ZM212.704 36.0252H218.694L225.021 51.4614H225.291L231.618 36.0252H237.608V59H232.896V44.0462H232.706L226.76 58.8878H223.552L217.606 43.9901H217.415V59H212.704V36.0252ZM240.264 36.0252H245.705L250.944 45.9196H251.168L256.407 36.0252H261.848L253.468 50.878V59H248.644V50.878L240.264 36.0252Z" fill="white"/>
<path d="M105.86 80.7949V68.6121H107.698V79.2126H113.218V80.7949H105.86ZM115.172 80.7949V71.6578H116.951V80.7949H115.172ZM116.07 70.248C115.761 70.248 115.495 70.1449 115.273 69.9387C115.055 69.7285 114.946 69.4786 114.946 69.1891C114.946 68.8957 115.055 68.6458 115.273 68.4396C115.495 68.2294 115.761 68.1243 116.07 68.1243C116.38 68.1243 116.644 68.2294 116.862 68.4396C117.084 68.6458 117.195 68.8957 117.195 69.1891C117.195 69.4786 117.084 69.7285 116.862 69.9387C116.644 70.1449 116.38 70.248 116.07 70.248ZM127.16 71.6578L123.847 80.7949H121.943L118.624 71.6578H120.533L122.847 78.6891H122.943L125.251 71.6578H127.16ZM132.459 80.9793C131.559 80.9793 130.783 80.787 130.133 80.4023C129.487 80.0137 128.987 79.4684 128.634 78.7664C128.285 78.0605 128.11 77.2337 128.11 76.2859C128.11 75.3499 128.285 74.5251 128.634 73.8112C128.987 73.0974 129.479 72.5402 130.109 72.1397C130.744 71.7391 131.485 71.5388 132.334 71.5388C132.85 71.5388 133.349 71.6241 133.833 71.7946C134.317 71.9652 134.751 72.2329 135.136 72.5977C135.521 72.9626 135.824 73.4365 136.046 74.0194C136.268 74.5984 136.379 75.3023 136.379 76.1312V76.7617H129.116V75.4293H134.636C134.636 74.9613 134.541 74.5469 134.351 74.186C134.16 73.8211 133.893 73.5336 133.548 73.3234C133.206 73.1132 132.806 73.0082 132.346 73.0082C131.846 73.0082 131.41 73.1311 131.037 73.377C130.668 73.6189 130.383 73.9361 130.181 74.3288C129.982 74.7174 129.883 75.1398 129.883 75.5958V76.6368C129.883 77.2476 129.99 77.7671 130.204 78.1954C130.423 78.6237 130.726 78.9508 131.115 79.1769C131.503 79.399 131.957 79.51 132.477 79.51C132.814 79.51 133.121 79.4624 133.399 79.3672C133.676 79.2681 133.916 79.1214 134.119 78.927C134.321 78.7327 134.476 78.4928 134.583 78.2073L136.266 78.5106C136.131 79.0064 135.889 79.4406 135.54 79.8134C135.195 80.1822 134.761 80.4697 134.238 80.6759C133.718 80.8782 133.125 80.9793 132.459 80.9793ZM146.872 80.7949H142.929V68.6121H146.997C148.191 68.6121 149.216 68.856 150.073 69.3438C150.929 69.8276 151.586 70.5236 152.042 71.4318C152.502 72.336 152.732 73.4206 152.732 74.6857C152.732 75.9547 152.5 77.0453 152.036 77.9574C151.576 78.8695 150.91 79.5715 150.037 80.0632C149.165 80.551 148.11 80.7949 146.872 80.7949ZM144.767 79.1888H146.771C147.699 79.1888 148.471 79.0143 149.085 78.6653C149.7 78.3124 150.16 77.8028 150.465 77.1365C150.771 76.4663 150.924 75.6494 150.924 74.6857C150.924 73.7299 150.771 72.9189 150.465 72.2527C150.164 71.5864 149.714 71.0808 149.115 70.7358C148.516 70.3908 147.773 70.2182 146.884 70.2182H144.767V79.1888ZM157.534 80.9972C156.955 80.9972 156.431 80.8901 155.963 80.6759C155.496 80.4578 155.125 80.1426 154.851 79.7301C154.581 79.3177 154.447 78.812 154.447 78.2132C154.447 77.6977 154.546 77.2733 154.744 76.9402C154.942 76.6071 155.21 76.3434 155.547 76.149C155.884 75.9547 156.261 75.808 156.677 75.7088C157.094 75.6097 157.518 75.5343 157.95 75.4828C158.498 75.4193 158.942 75.3678 159.283 75.3281C159.624 75.2845 159.872 75.2151 160.026 75.1199C160.181 75.0247 160.258 74.8701 160.258 74.6559V74.6143C160.258 74.0948 160.112 73.6922 159.818 73.4067C159.529 73.1212 159.096 72.9784 158.521 72.9784C157.923 72.9784 157.451 73.1113 157.106 73.377C156.765 73.6387 156.529 73.9302 156.398 74.2514L154.726 73.8707C154.924 73.3155 155.214 72.8674 155.595 72.5263C155.979 72.1813 156.422 71.9315 156.921 71.7768C157.421 71.6182 157.946 71.5388 158.498 71.5388C158.862 71.5388 159.249 71.5825 159.658 71.6697C160.07 71.753 160.455 71.9077 160.812 72.1337C161.173 72.3598 161.468 72.683 161.698 73.1033C161.928 73.5197 162.043 74.0611 162.043 74.7273V80.7949H160.306V79.5457H160.235C160.12 79.7757 159.947 80.0018 159.717 80.2239C159.487 80.4459 159.192 80.6303 158.831 80.7771C158.47 80.9238 158.038 80.9972 157.534 80.9972ZM157.921 79.5695C158.412 79.5695 158.833 79.4723 159.182 79.278C159.535 79.0837 159.802 78.8299 159.985 78.5166C160.171 78.1993 160.264 77.8603 160.264 77.4994V76.3215C160.201 76.385 160.078 76.4445 159.896 76.5C159.717 76.5516 159.513 76.5972 159.283 76.6368C159.053 76.6725 158.829 76.7062 158.611 76.738C158.393 76.7657 158.21 76.7895 158.063 76.8093C157.718 76.853 157.403 76.9263 157.118 77.0294C156.836 77.1325 156.61 77.2813 156.439 77.4756C156.273 77.6659 156.19 77.9197 156.19 78.237C156.19 78.6772 156.352 79.0103 156.677 79.2364C157.003 79.4585 157.417 79.5695 157.921 79.5695ZM171.259 73.8886L169.647 74.1741C169.579 73.9679 169.472 73.7716 169.326 73.5852C169.183 73.3988 168.989 73.2461 168.743 73.1271C168.497 73.0082 168.189 72.9487 167.821 72.9487C167.317 72.9487 166.897 73.0617 166.56 73.2877C166.222 73.5098 166.054 73.7973 166.054 74.1503C166.054 74.4557 166.167 74.7015 166.393 74.8879C166.619 75.0743 166.984 75.227 167.487 75.346L168.939 75.6791C169.78 75.8734 170.406 76.1728 170.819 76.5773C171.231 76.9818 171.437 77.5073 171.437 78.1537C171.437 78.701 171.279 79.1888 170.961 79.6171C170.648 80.0414 170.21 80.3746 169.647 80.6165C169.088 80.8584 168.439 80.9793 167.702 80.9793C166.678 80.9793 165.844 80.7612 165.197 80.325C164.551 79.8848 164.154 79.2602 164.008 78.4512L165.727 78.1894C165.834 78.6375 166.054 78.9766 166.387 79.2066C166.72 79.4327 167.154 79.5457 167.69 79.5457C168.273 79.5457 168.739 79.4248 169.088 79.1828C169.437 78.937 169.611 78.6375 169.611 78.2846C169.611 77.9991 169.504 77.7591 169.29 77.5648C169.08 77.3705 168.757 77.2238 168.32 77.1246L166.774 76.7855C165.921 76.5912 165.29 76.2819 164.882 75.8576C164.477 75.4332 164.275 74.8959 164.275 74.2455C164.275 73.7061 164.426 73.2342 164.727 72.8297C165.029 72.4252 165.445 72.1099 165.977 71.8839C166.508 71.6539 167.117 71.5388 167.803 71.5388C168.79 71.5388 169.568 71.753 170.135 72.1813C170.702 72.6056 171.077 73.1747 171.259 73.8886ZM175.172 75.3698V80.7949H173.393V68.6121H175.148V73.145H175.261C175.475 72.6532 175.802 72.2626 176.242 71.9731C176.683 71.6836 177.258 71.5388 177.968 71.5388C178.594 71.5388 179.141 71.6677 179.609 71.9255C180.081 72.1833 180.446 72.568 180.704 73.0795C180.966 73.5872 181.096 74.2217 181.096 74.9831V80.7949H179.318V75.1973C179.318 74.527 179.145 74.0075 178.8 73.6387C178.455 73.2659 177.975 73.0795 177.361 73.0795C176.94 73.0795 176.564 73.1688 176.231 73.3472C175.901 73.5257 175.642 73.7874 175.451 74.1324C175.265 74.4735 175.172 74.8859 175.172 75.3698ZM183.613 80.7949V68.6121H185.391V73.139H185.498C185.602 72.9487 185.75 72.7286 185.945 72.4787C186.139 72.2289 186.409 72.0108 186.754 71.8244C187.099 71.634 187.555 71.5388 188.122 71.5388C188.859 71.5388 189.518 71.7252 190.097 72.098C190.676 72.4708 191.13 73.0082 191.459 73.7101C191.792 74.412 191.959 75.2567 191.959 76.2442C191.959 77.2317 191.794 78.0784 191.465 78.7843C191.136 79.4862 190.684 80.0275 190.109 80.4083C189.534 80.785 188.877 80.9734 188.14 80.9734C187.584 80.9734 187.13 80.8802 186.777 80.6938C186.428 80.5074 186.155 80.2893 185.957 80.0394C185.758 79.7896 185.606 79.5675 185.498 79.3732H185.35V80.7949H183.613ZM185.356 76.2264C185.356 76.8688 185.449 77.432 185.635 77.9158C185.822 78.3996 186.091 78.7783 186.444 79.052C186.797 79.3216 187.23 79.4565 187.741 79.4565C188.273 79.4565 188.717 79.3157 189.074 79.0341C189.431 78.7486 189.7 78.3619 189.883 77.8741C190.069 77.3864 190.162 76.8371 190.162 76.2264C190.162 75.6236 190.071 75.0822 189.889 74.6024C189.71 74.1225 189.44 73.7438 189.08 73.4662C188.723 73.1886 188.276 73.0498 187.741 73.0498C187.226 73.0498 186.789 73.1827 186.432 73.4484C186.079 73.7141 185.812 74.0849 185.629 74.5608C185.447 75.0366 185.356 75.5918 185.356 76.2264ZM197.805 80.9793C196.948 80.9793 196.201 80.783 195.562 80.3904C194.924 79.9978 194.428 79.4485 194.075 78.7426C193.722 78.0367 193.545 77.2119 193.545 76.268C193.545 75.3202 193.722 74.4913 194.075 73.7815C194.428 73.0716 194.924 72.5204 195.562 72.1278C196.201 71.7351 196.948 71.5388 197.805 71.5388C198.661 71.5388 199.409 71.7351 200.047 72.1278C200.686 72.5204 201.182 73.0716 201.535 73.7815C201.887 74.4913 202.064 75.3202 202.064 76.268C202.064 77.2119 201.887 78.0367 201.535 78.7426C201.182 79.4485 200.686 79.9978 200.047 80.3904C199.409 80.783 198.661 80.9793 197.805 80.9793ZM197.811 79.4862C198.366 79.4862 198.826 79.3395 199.191 79.046C199.556 78.7526 199.825 78.3619 200 77.8741C200.178 77.3864 200.267 76.849 200.267 76.2621C200.267 75.6791 200.178 75.1437 200 74.6559C199.825 74.1642 199.556 73.7696 199.191 73.4722C198.826 73.1747 198.366 73.026 197.811 73.026C197.251 73.026 196.788 73.1747 196.419 73.4722C196.054 73.7696 195.782 74.1642 195.604 74.6559C195.429 75.1437 195.342 75.6791 195.342 76.2621C195.342 76.849 195.429 77.3864 195.604 77.8741C195.782 78.3619 196.054 78.7526 196.419 79.046C196.788 79.3395 197.251 79.4862 197.811 79.4862ZM206.708 80.9972C206.129 80.9972 205.606 80.8901 205.138 80.6759C204.67 80.4578 204.299 80.1426 204.026 79.7301C203.756 79.3177 203.621 78.812 203.621 78.2132C203.621 77.6977 203.72 77.2733 203.918 76.9402C204.117 76.6071 204.384 76.3434 204.721 76.149C205.059 75.9547 205.435 75.808 205.852 75.7088C206.268 75.6097 206.692 75.5343 207.125 75.4828C207.672 75.4193 208.116 75.3678 208.457 75.3281C208.798 75.2845 209.046 75.2151 209.201 75.1199C209.355 75.0247 209.433 74.8701 209.433 74.6559V74.6143C209.433 74.0948 209.286 73.6922 208.993 73.4067C208.703 73.1212 208.271 72.9784 207.696 72.9784C207.097 72.9784 206.625 73.1113 206.28 73.377C205.939 73.6387 205.703 73.9302 205.572 74.2514L203.901 73.8707C204.099 73.3155 204.388 72.8674 204.769 72.5263C205.154 72.1813 205.596 71.9315 206.096 71.7768C206.595 71.6182 207.121 71.5388 207.672 71.5388C208.037 71.5388 208.424 71.5825 208.832 71.6697C209.244 71.753 209.629 71.9077 209.986 72.1337C210.347 72.3598 210.642 72.683 210.872 73.1033C211.102 73.5197 211.217 74.0611 211.217 74.7273V80.7949H209.48V79.5457H209.409C209.294 79.7757 209.122 80.0018 208.891 80.2239C208.661 80.4459 208.366 80.6303 208.005 80.7771C207.644 80.9238 207.212 80.9972 206.708 80.9972ZM207.095 79.5695C207.587 79.5695 208.007 79.4723 208.356 79.278C208.709 79.0837 208.977 78.8299 209.159 78.5166C209.346 78.1993 209.439 77.8603 209.439 77.4994V76.3215C209.375 76.385 209.252 76.4445 209.07 76.5C208.891 76.5516 208.687 76.5972 208.457 76.6368C208.227 76.6725 208.003 76.7062 207.785 76.738C207.567 76.7657 207.385 76.7895 207.238 76.8093C206.893 76.853 206.577 76.9263 206.292 77.0294C206.01 77.1325 205.784 77.2813 205.614 77.4756C205.447 77.6659 205.364 77.9197 205.364 78.237C205.364 78.6772 205.527 79.0103 205.852 79.2364C206.177 79.4585 206.591 79.5695 207.095 79.5695ZM213.586 80.7949V71.6578H215.306V73.1093H215.401C215.567 72.6175 215.861 72.2309 216.281 71.9493C216.706 71.6638 217.185 71.521 217.721 71.521C217.832 71.521 217.963 71.525 218.113 71.5329C218.268 71.5408 218.389 71.5507 218.476 71.5626V73.2639C218.405 73.2441 218.278 73.2223 218.096 73.1985C217.913 73.1708 217.731 73.1569 217.548 73.1569C217.128 73.1569 216.753 73.2461 216.424 73.4246C216.099 73.5991 215.841 73.8429 215.651 74.1562C215.46 74.4656 215.365 74.8185 215.365 75.2151V80.7949H213.586ZM223.109 80.9734C222.371 80.9734 221.713 80.785 221.134 80.4083C220.559 80.0275 220.107 79.4862 219.777 78.7843C219.452 78.0784 219.29 77.2317 219.29 76.2442C219.29 75.2567 219.454 74.412 219.783 73.7101C220.117 73.0082 220.573 72.4708 221.152 72.098C221.731 71.7252 222.387 71.5388 223.121 71.5388C223.688 71.5388 224.144 71.634 224.489 71.8244C224.838 72.0108 225.107 72.2289 225.298 72.4787C225.492 72.7286 225.643 72.9487 225.75 73.139H225.857V68.6121H227.636V80.7949H225.899V79.3732H225.75C225.643 79.5675 225.488 79.7896 225.286 80.0394C225.088 80.2893 224.814 80.5074 224.465 80.6938C224.116 80.8802 223.664 80.9734 223.109 80.9734ZM223.501 79.4565C224.013 79.4565 224.445 79.3216 224.798 79.052C225.155 78.7783 225.425 78.3996 225.607 77.9158C225.794 77.432 225.887 76.8688 225.887 76.2264C225.887 75.5918 225.796 75.0366 225.613 74.5608C225.431 74.0849 225.163 73.7141 224.81 73.4484C224.457 73.1827 224.021 73.0498 223.501 73.0498C222.966 73.0498 222.52 73.1886 222.163 73.4662C221.806 73.7438 221.536 74.1225 221.354 74.6024C221.175 75.0822 221.086 75.6236 221.086 76.2264C221.086 76.8371 221.177 77.3864 221.36 77.8741C221.542 78.3619 221.812 78.7486 222.169 79.0341C222.53 79.3157 222.974 79.4565 223.501 79.4565Z" fill="#D5D5D5"/>
</svg>
